<?xml version="1.0" encoding="UTF-8" ?>
<svg version="1.1" width="64" height="64" xmlns="http://www.w3.org/2000/svg" shape-rendering="crispEdges">
<rect x="42" y="15" width="1" height="1" fill="#000000" />
<rect x="43" y="15" width="1" height="1" fill="#000000" />
<rect x="44" y="15" width="1" height="1" fill="#000000" />
<rect x="45" y="15" width="1" height="1" fill="#000000" />
<rect x="46" y="15" width="1" height="1" fill="#000000" />
<rect x="47" y="15" width="1" height="1" fill="#000000" />
<rect x="48" y="15" width="1" height="1" fill="#000000" />
<rect x="37" y="16" width="1" height="1" fill="#000000" />
<rect x="38" y="16" width="1" height="1" fill="#000000" />
<rect x="39" y="16" width="1" height="1" fill="#000000" />
<rect x="40" y="16" width="1" height="1" fill="#000000" />
<rect x="41" y="16" width="1" height="1" fill="#000000" />
<rect x="42" y="16" width="1" height="1" fill="#000000" />
<rect x="43" y="16" width="1" height="1" fill="#000000" />
<rect x="44" y="16" width="1" height="1" fill="#B4202A" />
<rect x="45" y="16" width="1" height="1" fill="#B4202A" />
<rect x="46" y="16" width="1" height="1" fill="#B4202A" />
<rect x="47" y="16" width="1" height="1" fill="#B4202A" />
<rect x="48" y="16" width="1" height="1" fill="#000000" />
<rect x="36" y="17" width="1" height="1" fill="#000000" />
<rect x="37" y="17" width="1" height="1" fill="#000000" />
<rect x="38" y="17" width="1" height="1" fill="#B4202A" />
<rect x="39" y="17" width="1" height="1" fill="#B05B2C" />
<rect x="40" y="17" width="1" height="1" fill="#B05B2C" />
<rect x="41" y="17" width="1" height="1" fill="#DFDFDF" />
<rect x="42" y="17" width="1" height="1" fill="#DFDFDF" />
<rect x="43" y="17" width="1" height="1" fill="#DFDFDF" />
<rect x="44" y="17" width="1" height="1" fill="#DFDFDF" />
<rect x="45" y="17" width="1" height="1" fill="#B4202A" />
<rect x="46" y="17" width="1" height="1" fill="#B4202A" />
<rect x="47" y="17" width="1" height="1" fill="#B4202A" />
<rect x="48" y="17" width="1" height="1" fill="#000000" />
<rect x="35" y="18" width="1" height="1" fill="#000000" />
<rect x="36" y="18" width="1" height="1" fill="#000000" />
<rect x="37" y="18" width="1" height="1" fill="#B4202A" />
<rect x="38" y="18" width="1" height="1" fill="#B4202A" />
<rect x="39" y="18" width="1" height="1" fill="#B05B2C" />
<rect x="40" y="18" width="1" height="1" fill="#B05B2C" />
<rect x="41" y="18" width="1" height="1" fill="#DFDFDF" />
<rect x="42" y="18" width="1" height="1" fill="#DFDFDF" />
<rect x="43" y="18" width="1" height="1" fill="#DFDFDF" />
<rect x="44" y="18" width="1" height="1" fill="#FFFFFF" />
<rect x="45" y="18" width="1" height="1" fill="#FFFFFF" />
<rect x="46" y="18" width="1" height="1" fill="#B4202A" />
<rect x="47" y="18" width="1" height="1" fill="#B4202A" />
<rect x="48" y="18" width="1" height="1" fill="#000000" />
<rect x="34" y="19" width="1" height="1" fill="#000000" />
<rect x="35" y="19" width="1" height="1" fill="#000000" />
<rect x="36" y="19" width="1" height="1" fill="#B4202A" />
<rect x="37" y="19" width="1" height="1" fill="#B4202A" />
<rect x="38" y="19" width="1" height="1" fill="#B05B2C" />
<rect x="39" y="19" width="1" height="1" fill="#B05B2C" />
<rect x="40" y="19" width="1" height="1" fill="#B05B2C" />
<rect x="41" y="19" width="1" height="1" fill="#DFDFDF" />
<rect x="42" y="19" width="1" height="1" fill="#DFDFDF" />
<rect x="43" y="19" width="1" height="1" fill="#FFFFFF" />
<rect x="44" y="19" width="1" height="1" fill="#FFFFFF" />
<rect x="45" y="19" width="1" height="1" fill="#FFFFFF" />
<rect x="46" y="19" width="1" height="1" fill="#B05B2C" />
<rect x="47" y="19" width="1" height="1" fill="#B4202A" />
<rect x="48" y="19" width="1" height="1" fill="#B4202A" />
<rect x="33" y="20" width="1" height="1" fill="#000000" />
<rect x="34" y="20" width="1" height="1" fill="#000000" />
<rect x="35" y="20" width="1" height="1" fill="#B4202A" />
<rect x="36" y="20" width="1" height="1" fill="#B4202A" />
<rect x="37" y="20" width="1" height="1" fill="#B4202A" />
<rect x="38" y="20" width="1" height="1" fill="#B05B2C" />
<rect x="39" y="20" width="1" height="1" fill="#B05B2C" />
<rect x="40" y="20" width="1" height="1" fill="#B05B2C" />
<rect x="41" y="20" width="1" height="1" fill="#DFDFDF" />
<rect x="42" y="20" width="1" height="1" fill="#FFFFFF" />
<rect x="43" y="20" width="1" height="1" fill="#B05B2C" />
<rect x="44" y="20" width="1" height="1" fill="#B05B2C" />
<rect x="45" y="20" width="1" height="1" fill="#B05B2C" />
<rect x="46" y="20" width="1" height="1" fill="#B05B2C" />
<rect x="47" y="20" width="1" height="1" fill="#B4202A" />
<rect x="48" y="20" width="1" height="1" fill="#B4202A" />
<rect x="31" y="21" width="1" height="1" fill="#000000" />
<rect x="32" y="21" width="1" height="1" fill="#000000" />
<rect x="33" y="21" width="1" height="1" fill="#000000" />
<rect x="34" y="21" width="1" height="1" fill="#DFDFDF" />
<rect x="35" y="21" width="1" height="1" fill="#B4202A" />
<rect x="36" y="21" width="1" height="1" fill="#B05B2C" />
<rect x="37" y="21" width="1" height="1" fill="#B05B2C" />
<rect x="38" y="21" width="1" height="1" fill="#B05B2C" />
<rect x="39" y="21" width="1" height="1" fill="#B05B2C" />
<rect x="40" y="21" width="1" height="1" fill="#B05B2C" />
<rect x="41" y="21" width="1" height="1" fill="#FFFFFF" />
<rect x="42" y="21" width="1" height="1" fill="#FFFFFF" />
<rect x="43" y="21" width="1" height="1" fill="#B05B2C" />
<rect x="44" y="21" width="1" height="1" fill="#B05B2C" />
<rect x="45" y="21" width="1" height="1" fill="#B4202A" />
<rect x="46" y="21" width="1" height="1" fill="#000000" />
<rect x="47" y="21" width="1" height="1" fill="#000000" />
<rect x="30" y="22" width="1" height="1" fill="#000000" />
<rect x="31" y="22" width="1" height="1" fill="#000000" />
<rect x="32" y="22" width="1" height="1" fill="#B4202A" />
<rect x="33" y="22" width="1" height="1" fill="#DFDFDF" />
<rect x="34" y="22" width="1" height="1" fill="#B4202A" />
<rect x="35" y="22" width="1" height="1" fill="#B4202A" />
<rect x="36" y="22" width="1" height="1" fill="#B05B2C" />
<rect x="37" y="22" width="1" height="1" fill="#B05B2C" />
<rect x="38" y="22" width="1" height="1" fill="#B05B2C" />
<rect x="39" y="22" width="1" height="1" fill="#B05B2C" />
<rect x="40" y="22" width="1" height="1" fill="#B05B2C" />
<rect x="41" y="22" width="1" height="1" fill="#FFFFFF" />
<rect x="42" y="22" width="1" height="1" fill="#FFFFFF" />
<rect x="43" y="22" width="1" height="1" fill="#B4202A" />
<rect x="44" y="22" width="1" height="1" fill="#B4202A" />
<rect x="45" y="22" width="1" height="1" fill="#B4202A" />
<rect x="46" y="22" width="1" height="1" fill="#000000" />
<rect x="48" y="22" width="1" height="1" fill="#B4202A" />
<rect x="49" y="22" width="1" height="1" fill="#B4202A" />
<rect x="29" y="23" width="1" height="1" fill="#000000" />
<rect x="30" y="23" width="1" height="1" fill="#000000" />
<rect x="31" y="23" width="1" height="1" fill="#B4202A" />
<rect x="32" y="23" width="1" height="1" fill="#B4202A" />
<rect x="33" y="23" width="1" height="1" fill="#DFDFDF" />
<rect x="34" y="23" width="1" height="1" fill="#B4202A" />
<rect x="35" y="23" width="1" height="1" fill="#B05B2C" />
<rect x="36" y="23" width="1" height="1" fill="#B05B2C" />
<rect x="37" y="23" width="1" height="1" fill="#B05B2C" />
<rect x="38" y="23" width="1" height="1" fill="#B05B2C" />
<rect x="39" y="23" width="1" height="1" fill="#B05B2C" />
<rect x="40" y="23" width="1" height="1" fill="#FFFFFF" />
<rect x="41" y="23" width="1" height="1" fill="#FFFFFF" />
<rect x="42" y="23" width="1" height="1" fill="#FFFFFF" />
<rect x="43" y="23" width="1" height="1" fill="#B4202A" />
<rect x="44" y="23" width="1" height="1" fill="#B4202A" />
<rect x="45" y="23" width="1" height="1" fill="#000000" />
<rect x="46" y="23" width="1" height="1" fill="#000000" />
<rect x="48" y="23" width="1" height="1" fill="#B4202A" />
<rect x="49" y="23" width="1" height="1" fill="#B4202A" />
<rect x="28" y="24" width="1" height="1" fill="#000000" />
<rect x="29" y="24" width="1" height="1" fill="#000000" />
<rect x="30" y="24" width="1" height="1" fill="#DFDFDF" />
<rect x="31" y="24" width="1" height="1" fill="#B4202A" />
<rect x="32" y="24" width="1" height="1" fill="#DFDFDF" />
<rect x="33" y="24" width="1" height="1" fill="#DFDFDF" />
<rect x="34" y="24" width="1" height="1" fill="#B4202A" />
<rect x="35" y="24" width="1" height="1" fill="#B05B2C" />
<rect x="36" y="24" width="1" height="1" fill="#B05B2C" />
<rect x="37" y="24" width="1" height="1" fill="#B05B2C" />
<rect x="38" y="24" width="1" height="1" fill="#B05B2C" />
<rect x="39" y="24" width="1" height="1" fill="#FFFFFF" />
<rect x="40" y="24" width="1" height="1" fill="#B4202A" />
<rect x="41" y="24" width="1" height="1" fill="#B4202A" />
<rect x="42" y="24" width="1" height="1" fill="#B4202A" />
<rect x="43" y="24" width="1" height="1" fill="#B4202A" />
<rect x="44" y="24" width="1" height="1" fill="#B4202A" />
<rect x="45" y="24" width="1" height="1" fill="#000000" />
<rect x="48" y="24" width="1" height="1" fill="#B4202A" />
<rect x="49" y="24" width="1" height="1" fill="#B4202A" />
<rect x="27" y="25" width="1" height="1" fill="#000000" />
<rect x="28" y="25" width="1" height="1" fill="#000000" />
<rect x="29" y="25" width="1" height="1" fill="#DFDFDF" />
<rect x="30" y="25" width="1" height="1" fill="#DFDFDF" />
<rect x="31" y="25" width="1" height="1" fill="#B4202A" />
<rect x="32" y="25" width="1" height="1" fill="#DFDFDF" />
<rect x="33" y="25" width="1" height="1" fill="#DFDFDF" />
<rect x="34" y="25" width="1" height="1" fill="#DFDFDF" />
<rect x="35" y="25" width="1" height="1" fill="#DFDFDF" />
<rect x="36" y="25" width="1" height="1" fill="#DFDFDF" />
<rect x="37" y="25" width="1" height="1" fill="#FFFFFF" />
<rect x="38" y="25" width="1" height="1" fill="#FFFFFF" />
<rect x="39" y="25" width="1" height="1" fill="#B4202A" />
<rect x="40" y="25" width="1" height="1" fill="#B05B2C" />
<rect x="41" y="25" width="1" height="1" fill="#B05B2C" />
<rect x="42" y="25" width="1" height="1" fill="#B05B2C" />
<rect x="43" y="25" width="1" height="1" fill="#B05B2C" />
<rect x="44" y="25" width="1" height="1" fill="#000000" />
<rect x="47" y="25" width="1" height="1" fill="#B4202A" />
<rect x="48" y="25" width="1" height="1" fill="#B4202A" />
<rect x="49" y="25" width="1" height="1" fill="#B4202A" />
<rect x="50" y="25" width="1" height="1" fill="#B4202A" />
<rect x="26" y="26" width="1" height="1" fill="#000000" />
<rect x="27" y="26" width="1" height="1" fill="#000000" />
<rect x="28" y="26" width="1" height="1" fill="#DFDFDF" />
<rect x="29" y="26" width="1" height="1" fill="#DFDFDF" />
<rect x="30" y="26" width="1" height="1" fill="#DFDFDF" />
<rect x="31" y="26" width="1" height="1" fill="#B4202A" />
<rect x="32" y="26" width="1" height="1" fill="#DFDFDF" />
<rect x="33" y="26" width="1" height="1" fill="#DFDFDF" />
<rect x="34" y="26" width="1" height="1" fill="#DFDFDF" />
<rect x="35" y="26" width="1" height="1" fill="#EFEFEF" />
<rect x="36" y="26" width="1" height="1" fill="#FFFFFF" />
<rect x="37" y="26" width="1" height="1" fill="#FFFFFF" />
<rect x="38" y="26" width="1" height="1" fill="#B4202A" />
<rect x="39" y="26" width="1" height="1" fill="#B05B2C" />
<rect x="40" y="26" width="1" height="1" fill="#B05B2C" />
<rect x="41" y="26" width="1" height="1" fill="#B05B2C" />
<rect x="42" y="26" width="1" height="1" fill="#B05B2C" />
<rect x="43" y="26" width="1" height="1" fill="#000000" />
<rect x="44" y="26" width="1" height="1" fill="#000000" />
<rect x="47" y="26" width="1" height="1" fill="#B4202A" />
<rect x="48" y="26" width="1" height="1" fill="#B4202A" />
<rect x="49" y="26" width="1" height="1" fill="#B4202A" />
<rect x="50" y="26" width="1" height="1" fill="#B4202A" />
<rect x="25" y="27" width="1" height="1" fill="#000000" />
<rect x="26" y="27" width="1" height="1" fill="#000000" />
<rect x="27" y="27" width="1" height="1" fill="#DFDFDF" />
<rect x="28" y="27" width="1" height="1" fill="#DFDFDF" />
<rect x="29" y="27" width="1" height="1" fill="#DFDFDF" />
<rect x="30" y="27" width="1" height="1" fill="#DFDFDF" />
<rect x="31" y="27" width="1" height="1" fill="#DFDFDF" />
<rect x="32" y="27" width="1" height="1" fill="#DFDFDF" />
<rect x="33" y="27" width="1" height="1" fill="#DFDFDF" />
<rect x="34" y="27" width="1" height="1" fill="#FFFFFF" />
<rect x="35" y="27" width="1" height="1" fill="#B4202A" />
<rect x="36" y="27" width="1" height="1" fill="#B4202A" />
<rect x="37" y="27" width="1" height="1" fill="#FFFFFF" />
<rect x="38" y="27" width="1" height="1" fill="#B05B2C" />
<rect x="39" y="27" width="1" height="1" fill="#B05B2C" />
<rect x="40" y="27" width="1" height="1" fill="#B05B2C" />
<rect x="41" y="27" width="1" height="1" fill="#B05B2C" />
<rect x="42" y="27" width="1" height="1" fill="#000000" />
<rect x="43" y="27" width="1" height="1" fill="#000000" />
<rect x="47" y="27" width="1" height="1" fill="#B4202A" />
<rect x="48" y="27" width="1" height="1" fill="#B4202A" />
<rect x="49" y="27" width="1" height="1" fill="#B4202A" />
<rect x="50" y="27" width="1" height="1" fill="#B4202A" />
<rect x="22" y="28" width="1" height="1" fill="#000000" />
<rect x="23" y="28" width="1" height="1" fill="#000000" />
<rect x="24" y="28" width="1" height="1" fill="#000000" />
<rect x="25" y="28" width="1" height="1" fill="#B4202A" />
<rect x="26" y="28" width="1" height="1" fill="#B4202A" />
<rect x="27" y="28" width="1" height="1" fill="#B4202A" />
<rect x="28" y="28" width="1" height="1" fill="#B4202A" />
<rect x="29" y="28" width="1" height="1" fill="#DFDFDF" />
<rect x="30" y="28" width="1" height="1" fill="#DFDFDF" />
<rect x="31" y="28" width="1" height="1" fill="#DFDFDF" />
<rect x="32" y="28" width="1" height="1" fill="#DFDFDF" />
<rect x="33" y="28" width="1" height="1" fill="#FFFFFF" />
<rect x="34" y="28" width="1" height="1" fill="#B05B2C" />
<rect x="35" y="28" width="1" height="1" fill="#B05B2C" />
<rect x="36" y="28" width="1" height="1" fill="#B4202A" />
<rect x="37" y="28" width="1" height="1" fill="#FFFFFF" />
<rect x="38" y="28" width="1" height="1" fill="#B4202A" />
<rect x="39" y="28" width="1" height="1" fill="#B05B2C" />
<rect x="40" y="28" width="1" height="1" fill="#000000" />
<rect x="41" y="28" width="1" height="1" fill="#000000" />
<rect x="48" y="28" width="1" height="1" fill="#B4202A" />
<rect x="49" y="28" width="1" height="1" fill="#B4202A" />
<rect x="21" y="29" width="1" height="1" fill="#000000" />
<rect x="22" y="29" width="1" height="1" fill="#AA5500" />
<rect x="23" y="29" width="1" height="1" fill="#000000" />
<rect x="24" y="29" width="1" height="1" fill="#B4202A" />
<rect x="25" y="29" width="1" height="1" fill="#B4202A" />
<rect x="26" y="29" width="1" height="1" fill="#B05B2C" />
<rect x="27" y="29" width="1" height="1" fill="#B05B2C" />
<rect x="28" y="29" width="1" height="1" fill="#B4202A" />
<rect x="29" y="29" width="1" height="1" fill="#DFDFDF" />
<rect x="30" y="29" width="1" height="1" fill="#DFDFDF" />
<rect x="31" y="29" width="1" height="1" fill="#EFEFEF" />
<rect x="32" y="29" width="1" height="1" fill="#FFFFFF" />
<rect x="33" y="29" width="1" height="1" fill="#B05B2C" />
<rect x="34" y="29" width="1" height="1" fill="#B05B2C" />
<rect x="35" y="29" width="1" height="1" fill="#B05B2C" />
<rect x="36" y="29" width="1" height="1" fill="#B4202A" />
<rect x="37" y="29" width="1" height="1" fill="#FFFFFF" />
<rect x="38" y="29" width="1" height="1" fill="#B4202A" />
<rect x="39" y="29" width="1" height="1" fill="#000000" />
<rect x="40" y="29" width="1" height="1" fill="#000000" />
<rect x="20" y="30" width="1" height="1" fill="#000000" />
<rect x="21" y="30" width="1" height="1" fill="#AA5500" />
<rect x="22" y="30" width="1" height="1" fill="#AA5500" />
<rect x="23" y="30" width="1" height="1" fill="#000000" />
<rect x="24" y="30" width="1" height="1" fill="#B05B2C" />
<rect x="25" y="30" width="1" height="1" fill="#B05B2C" />
<rect x="26" y="30" width="1" height="1" fill="#B05B2C" />
<rect x="27" y="30" width="1" height="1" fill="#B05B2C" />
<rect x="28" y="30" width="1" height="1" fill="#B05B2C" />
<rect x="29" y="30" width="1" height="1" fill="#DFDFDF" />
<rect x="30" y="30" width="1" height="1" fill="#FFFFFF" />
<rect x="31" y="30" width="1" height="1" fill="#FFFFFF" />
<rect x="32" y="30" width="1" height="1" fill="#FFFFFF" />
<rect x="33" y="30" width="1" height="1" fill="#B05B2C" />
<rect x="34" y="30" width="1" height="1" fill="#B05B2C" />
<rect x="35" y="30" width="1" height="1" fill="#B05B2C" />
<rect x="36" y="30" width="1" height="1" fill="#B4202A" />
<rect x="37" y="30" width="1" height="1" fill="#FFFFFF" />
<rect x="38" y="30" width="1" height="1" fill="#000000" />
<rect x="39" y="30" width="1" height="1" fill="#000000" />
<rect x="46" y="30" width="1" height="1" fill="#B4202A" />
<rect x="19" y="31" width="1" height="1" fill="#000000" />
<rect x="20" y="31" width="1" height="1" fill="#FF8200" />
<rect x="21" y="31" width="1" height="1" fill="#AA5500" />
<rect x="22" y="31" width="1" height="1" fill="#AA5500" />
<rect x="23" y="31" width="1" height="1" fill="#000000" />
<rect x="24" y="31" width="1" height="1" fill="#B05B2C" />
<rect x="25" y="31" width="1" height="1" fill="#B05B2C" />
<rect x="26" y="31" width="1" height="1" fill="#B05B2C" />
<rect x="27" y="31" width="1" height="1" fill="#B05B2C" />
<rect x="28" y="31" width="1" height="1" fill="#B05B2C" />
<rect x="29" y="31" width="1" height="1" fill="#FFFFFF" />
<rect x="30" y="31" width="1" height="1" fill="#FFFFFF" />
<rect x="31" y="31" width="1" height="1" fill="#FFFFFF" />
<rect x="32" y="31" width="1" height="1" fill="#B4202A" />
<rect x="33" y="31" width="1" height="1" fill="#B4202A" />
<rect x="34" y="31" width="1" height="1" fill="#B05B2C" />
<rect x="35" y="31" width="1" height="1" fill="#B05B2C" />
<rect x="36" y="31" width="1" height="1" fill="#B4202A" />
<rect x="37" y="31" width="1" height="1" fill="#000000" />
<rect x="38" y="31" width="1" height="1" fill="#000000" />
<rect x="46" y="31" width="1" height="1" fill="#B4202A" />
<rect x="47" y="31" width="1" height="1" fill="#B4202A" />
<rect x="17" y="32" width="1" height="1" fill="#000000" />
<rect x="18" y="32" width="1" height="1" fill="#000000" />
<rect x="19" y="32" width="1" height="1" fill="#AA5500" />
<rect x="20" y="32" width="1" height="1" fill="#FF8200" />
<rect x="21" y="32" width="1" height="1" fill="#AA5500" />
<rect x="22" y="32" width="1" height="1" fill="#AA5500" />
<rect x="23" y="32" width="1" height="1" fill="#000000" />
<rect x="24" y="32" width="1" height="1" fill="#000000" />
<rect x="25" y="32" width="1" height="1" fill="#B05B2C" />
<rect x="26" y="32" width="1" height="1" fill="#B05B2C" />
<rect x="27" y="32" width="1" height="1" fill="#B05B2C" />
<rect x="28" y="32" width="1" height="1" fill="#B05B2C" />
<rect x="29" y="32" width="1" height="1" fill="#B4202A" />
<rect x="30" y="32" width="1" height="1" fill="#FFFFFF" />
<rect x="31" y="32" width="1" height="1" fill="#FFFFFF" />
<rect x="32" y="32" width="1" height="1" fill="#B4202A" />
<rect x="33" y="32" width="1" height="1" fill="#B05B2C" />
<rect x="34" y="32" width="1" height="1" fill="#B05B2C" />
<rect x="35" y="32" width="1" height="1" fill="#000000" />
<rect x="36" y="32" width="1" height="1" fill="#000000" />
<rect x="37" y="32" width="1" height="1" fill="#000000" />
<rect x="44" y="32" width="1" height="1" fill="#B4202A" />
<rect x="45" y="32" width="1" height="1" fill="#B4202A" />
<rect x="46" y="32" width="1" height="1" fill="#B4202A" />
<rect x="47" y="32" width="1" height="1" fill="#B4202A" />
<rect x="16" y="33" width="1" height="1" fill="#000000" />
<rect x="17" y="33" width="1" height="1" fill="#AA5500" />
<rect x="18" y="33" width="1" height="1" fill="#AA5500" />
<rect x="19" y="33" width="1" height="1" fill="#AA5500" />
<rect x="20" y="33" width="1" height="1" fill="#FF8200" />
<rect x="21" y="33" width="1" height="1" fill="#AA5500" />
<rect x="22" y="33" width="1" height="1" fill="#AA5500" />
<rect x="23" y="33" width="1" height="1" fill="#FF8200" />
<rect x="24" y="33" width="1" height="1" fill="#000000" />
<rect x="25" y="33" width="1" height="1" fill="#B05B2C" />
<rect x="26" y="33" width="1" height="1" fill="#B05B2C" />
<rect x="27" y="33" width="1" height="1" fill="#B05B2C" />
<rect x="28" y="33" width="1" height="1" fill="#B4202A" />
<rect x="29" y="33" width="1" height="1" fill="#B4202A" />
<rect x="30" y="33" width="1" height="1" fill="#FFFFFF" />
<rect x="31" y="33" width="1" height="1" fill="#B4202A" />
<rect x="32" y="33" width="1" height="1" fill="#B4202A" />
<rect x="33" y="33" width="1" height="1" fill="#B05B2C" />
<rect x="34" y="33" width="1" height="1" fill="#000000" />
<rect x="35" y="33" width="1" height="1" fill="#000000" />
<rect x="44" y="33" width="1" height="1" fill="#B4202A" />
<rect x="45" y="33" width="1" height="1" fill="#B4202A" />
<rect x="46" y="33" width="1" height="1" fill="#B4202A" />
<rect x="47" y="33" width="1" height="1" fill="#B4202A" />
<rect x="15" y="34" width="1" height="1" fill="#000000" />
<rect x="16" y="34" width="1" height="1" fill="#FF8200" />
<rect x="17" y="34" width="1" height="1" fill="#AA5500" />
<rect x="18" y="34" width="1" height="1" fill="#AA5500" />
<rect x="19" y="34" width="1" height="1" fill="#AA5500" />
<rect x="20" y="34" width="1" height="1" fill="#FF8200" />
<rect x="21" y="34" width="1" height="1" fill="#AA5500" />
<rect x="22" y="34" width="1" height="1" fill="#AA5500" />
<rect x="23" y="34" width="1" height="1" fill="#FF8200" />
<rect x="24" y="34" width="1" height="1" fill="#000000" />
<rect x="25" y="34" width="1" height="1" fill="#B4202A" />
<rect x="26" y="34" width="1" height="1" fill="#B4202A" />
<rect x="27" y="34" width="1" height="1" fill="#B4202A" />
<rect x="28" y="34" width="1" height="1" fill="#B4202A" />
<rect x="29" y="34" width="1" height="1" fill="#FFFFFF" />
<rect x="30" y="34" width="1" height="1" fill="#B4202A" />
<rect x="31" y="34" width="1" height="1" fill="#B4202A" />
<rect x="32" y="34" width="1" height="1" fill="#000000" />
<rect x="33" y="34" width="1" height="1" fill="#000000" />
<rect x="34" y="34" width="1" height="1" fill="#000000" />
<rect x="43" y="34" width="1" height="1" fill="#B4202A" />
<rect x="44" y="34" width="1" height="1" fill="#B4202A" />
<rect x="45" y="34" width="1" height="1" fill="#B4202A" />
<rect x="46" y="34" width="1" height="1" fill="#B4202A" />
<rect x="47" y="34" width="1" height="1" fill="#B4202A" />
<rect x="14" y="35" width="1" height="1" fill="#000000" />
<rect x="15" y="35" width="1" height="1" fill="#AA5500" />
<rect x="16" y="35" width="1" height="1" fill="#FF8200" />
<rect x="17" y="35" width="1" height="1" fill="#AA5500" />
<rect x="18" y="35" width="1" height="1" fill="#AA5500" />
<rect x="19" y="35" width="1" height="1" fill="#AA5500" />
<rect x="20" y="35" width="1" height="1" fill="#FF8200" />
<rect x="21" y="35" width="1" height="1" fill="#AA5500" />
<rect x="22" y="35" width="1" height="1" fill="#FF8200" />
<rect x="23" y="35" width="1" height="1" fill="#FF8200" />
<rect x="24" y="35" width="1" height="1" fill="#000000" />
<rect x="25" y="35" width="1" height="1" fill="#FFFFFF" />
<rect x="26" y="35" width="1" height="1" fill="#FFFFFF" />
<rect x="27" y="35" width="1" height="1" fill="#FFFFFF" />
<rect x="28" y="35" width="1" height="1" fill="#FFFFFF" />
<rect x="29" y="35" width="1" height="1" fill="#000000" />
<rect x="30" y="35" width="1" height="1" fill="#000000" />
<rect x="31" y="35" width="1" height="1" fill="#000000" />
<rect x="32" y="35" width="1" height="1" fill="#000000" />
<rect x="44" y="35" width="1" height="1" fill="#B4202A" />
<rect x="45" y="35" width="1" height="1" fill="#B4202A" />
<rect x="46" y="35" width="1" height="1" fill="#B4202A" />
<rect x="12" y="36" width="1" height="1" fill="#000000" />
<rect x="13" y="36" width="1" height="1" fill="#000000" />
<rect x="14" y="36" width="1" height="1" fill="#AA5500" />
<rect x="15" y="36" width="1" height="1" fill="#AA5500" />
<rect x="16" y="36" width="1" height="1" fill="#FF8200" />
<rect x="17" y="36" width="1" height="1" fill="#AA5500" />
<rect x="18" y="36" width="1" height="1" fill="#AA5500" />
<rect x="19" y="36" width="1" height="1" fill="#AA5500" />
<rect x="20" y="36" width="1" height="1" fill="#FF8200" />
<rect x="21" y="36" width="1" height="1" fill="#FF8200" />
<rect x="22" y="36" width="1" height="1" fill="#FF8200" />
<rect x="23" y="36" width="1" height="1" fill="#AA5500" />
<rect x="24" y="36" width="1" height="1" fill="#000000" />
<rect x="25" y="36" width="1" height="1" fill="#000000" />
<rect x="26" y="36" width="1" height="1" fill="#FFFFFF" />
<rect x="27" y="36" width="1" height="1" fill="#000000" />
<rect x="28" y="36" width="1" height="1" fill="#000000" />
<rect x="29" y="36" width="1" height="1" fill="#000000" />
<rect x="49" y="36" width="1" height="1" fill="#B4202A" />
<rect x="50" y="36" width="1" height="1" fill="#B4202A" />
<rect x="10" y="37" width="1" height="1" fill="#000000" />
<rect x="11" y="37" width="1" height="1" fill="#000000" />
<rect x="12" y="37" width="1" height="1" fill="#FF8200" />
<rect x="13" y="37" width="1" height="1" fill="#AA5500" />
<rect x="14" y="37" width="1" height="1" fill="#AA5500" />
<rect x="15" y="37" width="1" height="1" fill="#AA5500" />
<rect x="16" y="37" width="1" height="1" fill="#FF8200" />
<rect x="17" y="37" width="1" height="1" fill="#AA5500" />
<rect x="18" y="37" width="1" height="1" fill="#AA5500" />
<rect x="19" y="37" width="1" height="1" fill="#AA5500" />
<rect x="20" y="37" width="1" height="1" fill="#FF8200" />
<rect x="21" y="37" width="1" height="1" fill="#FF8200" />
<rect x="22" y="37" width="1" height="1" fill="#AA5500" />
<rect x="23" y="37" width="1" height="1" fill="#AA5500" />
<rect x="24" y="37" width="1" height="1" fill="#AA5500" />
<rect x="25" y="37" width="1" height="1" fill="#000000" />
<rect x="26" y="37" width="1" height="1" fill="#000000" />
<rect x="27" y="37" width="1" height="1" fill="#000000" />
<rect x="49" y="37" width="1" height="1" fill="#B4202A" />
<rect x="50" y="37" width="1" height="1" fill="#B4202A" />
<rect x="7" y="38" width="1" height="1" fill="#000000" />
<rect x="8" y="38" width="1" height="1" fill="#000000" />
<rect x="9" y="38" width="1" height="1" fill="#000000" />
<rect x="10" y="38" width="1" height="1" fill="#AA5500" />
<rect x="11" y="38" width="1" height="1" fill="#AA5500" />
<rect x="12" y="38" width="1" height="1" fill="#FF8200" />
<rect x="13" y="38" width="1" height="1" fill="#AA5500" />
<rect x="14" y="38" width="1" height="1" fill="#AA5500" />
<rect x="15" y="38" width="1" height="1" fill="#AA5500" />
<rect x="16" y="38" width="1" height="1" fill="#FF8200" />
<rect x="17" y="38" width="1" height="1" fill="#FF8200" />
<rect x="18" y="38" width="1" height="1" fill="#AA5500" />
<rect x="19" y="38" width="1" height="1" fill="#FF8200" />
<rect x="20" y="38" width="1" height="1" fill="#FF8200" />
<rect x="21" y="38" width="1" height="1" fill="#AA5500" />
<rect x="22" y="38" width="1" height="1" fill="#AA5500" />
<rect x="23" y="38" width="1" height="1" fill="#AA5500" />
<rect x="24" y="38" width="1" height="1" fill="#AA5500" />
<rect x="25" y="38" width="1" height="1" fill="#AA5500" />
<rect x="26" y="38" width="1" height="1" fill="#000000" />
<rect x="27" y="38" width="1" height="1" fill="#000000" />
<rect x="48" y="38" width="1" height="1" fill="#B4202A" />
<rect x="49" y="38" width="1" height="1" fill="#B4202A" />
<rect x="50" y="38" width="1" height="1" fill="#B4202A" />
<rect x="51" y="38" width="1" height="1" fill="#B4202A" />
<rect x="6" y="39" width="1" height="1" fill="#000000" />
<rect x="7" y="39" width="1" height="1" fill="#FF8200" />
<rect x="8" y="39" width="1" height="1" fill="#FF8200" />
<rect x="9" y="39" width="1" height="1" fill="#AA5500" />
<rect x="10" y="39" width="1" height="1" fill="#AA5500" />
<rect x="11" y="39" width="1" height="1" fill="#AA5500" />
<rect x="12" y="39" width="1" height="1" fill="#FF8200" />
<rect x="13" y="39" width="1" height="1" fill="#FF8200" />
<rect x="14" y="39" width="1" height="1" fill="#AA5500" />
<rect x="15" y="39" width="1" height="1" fill="#AA5500" />
<rect x="16" y="39" width="1" height="1" fill="#AA5500" />
<rect x="17" y="39" width="1" height="1" fill="#FF8200" />
<rect x="18" y="39" width="1" height="1" fill="#FF8200" />
<rect x="19" y="39" width="1" height="1" fill="#FF8200" />
<rect x="20" y="39" width="1" height="1" fill="#FF8200" />
<rect x="21" y="39" width="1" height="1" fill="#AA5500" />
<rect x="22" y="39" width="1" height="1" fill="#AA5500" />
<rect x="23" y="39" width="1" height="1" fill="#AA5500" />
<rect x="24" y="39" width="1" height="1" fill="#AA5500" />
<rect x="25" y="39" width="1" height="1" fill="#AA5500" />
<rect x="26" y="39" width="1" height="1" fill="#000000" />
<rect x="46" y="39" width="1" height="1" fill="#B4202A" />
<rect x="47" y="39" width="1" height="1" fill="#B4202A" />
<rect x="48" y="39" width="1" height="1" fill="#B4202A" />
<rect x="49" y="39" width="1" height="1" fill="#B4202A" />
<rect x="50" y="39" width="1" height="1" fill="#B4202A" />
<rect x="51" y="39" width="1" height="1" fill="#B4202A" />
<rect x="4" y="40" width="1" height="1" fill="#000000" />
<rect x="5" y="40" width="1" height="1" fill="#000000" />
<rect x="6" y="40" width="1" height="1" fill="#AA5500" />
<rect x="7" y="40" width="1" height="1" fill="#AA5500" />
<rect x="8" y="40" width="1" height="1" fill="#FF8200" />
<rect x="9" y="40" width="1" height="1" fill="#AA5500" />
<rect x="10" y="40" width="1" height="1" fill="#AA5500" />
<rect x="11" y="40" width="1" height="1" fill="#AA5500" />
<rect x="12" y="40" width="1" height="1" fill="#AA5500" />
<rect x="13" y="40" width="1" height="1" fill="#FF8200" />
<rect x="14" y="40" width="1" height="1" fill="#FF8200" />
<rect x="15" y="40" width="1" height="1" fill="#AA5500" />
<rect x="16" y="40" width="1" height="1" fill="#AA5500" />
<rect x="17" y="40" width="1" height="1" fill="#AA5500" />
<rect x="18" y="40" width="1" height="1" fill="#FF8200" />
<rect x="19" y="40" width="1" height="1" fill="#FF8200" />
<rect x="20" y="40" width="1" height="1" fill="#FF8200" />
<rect x="21" y="40" width="1" height="1" fill="#FF8200" />
<rect x="22" y="40" width="1" height="1" fill="#AA5500" />
<rect x="23" y="40" width="1" height="1" fill="#AA5500" />
<rect x="24" y="40" width="1" height="1" fill="#AA5500" />
<rect x="25" y="40" width="1" height="1" fill="#000000" />
<rect x="46" y="40" width="1" height="1" fill="#B4202A" />
<rect x="47" y="40" width="1" height="1" fill="#B4202A" />
<rect x="48" y="40" width="1" height="1" fill="#B4202A" />
<rect x="49" y="40" width="1" height="1" fill="#B4202A" />
<rect x="50" y="40" width="1" height="1" fill="#B4202A" />
<rect x="51" y="40" width="1" height="1" fill="#B4202A" />
<rect x="3" y="41" width="1" height="1" fill="#000000" />
<rect x="4" y="41" width="1" height="1" fill="#AA5500" />
<rect x="5" y="41" width="1" height="1" fill="#FF8200" />
<rect x="6" y="41" width="1" height="1" fill="#AA5500" />
<rect x="7" y="41" width="1" height="1" fill="#AA5500" />
<rect x="8" y="41" width="1" height="1" fill="#FF8200" />
<rect x="9" y="41" width="1" height="1" fill="#FF8200" />
<rect x="10" y="41" width="1" height="1" fill="#AA5500" />
<rect x="11" y="41" width="1" height="1" fill="#AA5500" />
<rect x="12" y="41" width="1" height="1" fill="#AA5500" />
<rect x="13" y="41" width="1" height="1" fill="#AA5500" />
<rect x="14" y="41" width="1" height="1" fill="#FF8200" />
<rect x="15" y="41" width="1" height="1" fill="#FF8200" />
<rect x="16" y="41" width="1" height="1" fill="#FF8200" />
<rect x="17" y="41" width="1" height="1" fill="#FF8200" />
<rect x="18" y="41" width="1" height="1" fill="#FF8200" />
<rect x="19" y="41" width="1" height="1" fill="#AA5500" />
<rect x="20" y="41" width="1" height="1" fill="#AA5500" />
<rect x="21" y="41" width="1" height="1" fill="#FF8200" />
<rect x="22" y="41" width="1" height="1" fill="#AA5500" />
<rect x="23" y="41" width="1" height="1" fill="#AA5500" />
<rect x="24" y="41" width="1" height="1" fill="#000000" />
<rect x="47" y="41" width="1" height="1" fill="#B4202A" />
<rect x="48" y="41" width="1" height="1" fill="#B4202A" />
<rect x="49" y="41" width="1" height="1" fill="#B4202A" />
<rect x="50" y="41" width="1" height="1" fill="#B4202A" />
<rect x="51" y="41" width="1" height="1" fill="#B4202A" />
<rect x="2" y="42" width="1" height="1" fill="#000000" />
<rect x="3" y="42" width="1" height="1" fill="#AA5500" />
<rect x="4" y="42" width="1" height="1" fill="#AA5500" />
<rect x="5" y="42" width="1" height="1" fill="#FF8200" />
<rect x="6" y="42" width="1" height="1" fill="#AA5500" />
<rect x="7" y="42" width="1" height="1" fill="#AA5500" />
<rect x="8" y="42" width="1" height="1" fill="#AA5500" />
<rect x="9" y="42" width="1" height="1" fill="#FF8200" />
<rect x="10" y="42" width="1" height="1" fill="#FF8200" />
<rect x="11" y="42" width="1" height="1" fill="#FF8200" />
<rect x="12" y="42" width="1" height="1" fill="#AA5500" />
<rect x="13" y="42" width="1" height="1" fill="#AA5500" />
<rect x="14" y="42" width="1" height="1" fill="#AA5500" />
<rect x="15" y="42" width="1" height="1" fill="#AA5500" />
<rect x="16" y="42" width="1" height="1" fill="#FF8200" />
<rect x="17" y="42" width="1" height="1" fill="#FF8200" />
<rect x="18" y="42" width="1" height="1" fill="#AA5500" />
<rect x="19" y="42" width="1" height="1" fill="#AA5500" />
<rect x="20" y="42" width="1" height="1" fill="#AA5500" />
<rect x="21" y="42" width="1" height="1" fill="#FF8200" />
<rect x="22" y="42" width="1" height="1" fill="#FF8200" />
<rect x="23" y="42" width="1" height="1" fill="#000000" />
<rect x="48" y="42" width="1" height="1" fill="#B4202A" />
<rect x="49" y="42" width="1" height="1" fill="#B4202A" />
<rect x="50" y="42" width="1" height="1" fill="#B4202A" />
<rect x="2" y="43" width="1" height="1" fill="#000000" />
<rect x="3" y="43" width="1" height="1" fill="#AA5500" />
<rect x="4" y="43" width="1" height="1" fill="#AA5500" />
<rect x="5" y="43" width="1" height="1" fill="#FF8200" />
<rect x="6" y="43" width="1" height="1" fill="#AA5500" />
<rect x="7" y="43" width="1" height="1" fill="#AA5500" />
<rect x="8" y="43" width="1" height="1" fill="#AA5500" />
<rect x="9" y="43" width="1" height="1" fill="#FF8200" />
<rect x="10" y="43" width="1" height="1" fill="#AA5500" />
<rect x="11" y="43" width="1" height="1" fill="#FF8200" />
<rect x="12" y="43" width="1" height="1" fill="#FF8200" />
<rect x="13" y="43" width="1" height="1" fill="#FF8200" />
<rect x="14" y="43" width="1" height="1" fill="#AA5500" />
<rect x="15" y="43" width="1" height="1" fill="#FF8200" />
<rect x="16" y="43" width="1" height="1" fill="#FF8200" />
<rect x="17" y="43" width="1" height="1" fill="#FF8200" />
<rect x="18" y="43" width="1" height="1" fill="#AA5500" />
<rect x="19" y="43" width="1" height="1" fill="#AA5500" />
<rect x="20" y="43" width="1" height="1" fill="#AA5500" />
<rect x="21" y="43" width="1" height="1" fill="#AA5500" />
<rect x="22" y="43" width="1" height="1" fill="#000000" />
<rect x="49" y="43" width="1" height="1" fill="#B4202A" />
<rect x="50" y="43" width="1" height="1" fill="#B4202A" />
<rect x="3" y="44" width="1" height="1" fill="#000000" />
<rect x="4" y="44" width="1" height="1" fill="#AA5500" />
<rect x="5" y="44" width="1" height="1" fill="#FF8200" />
<rect x="6" y="44" width="1" height="1" fill="#AA5500" />
<rect x="7" y="44" width="1" height="1" fill="#AA5500" />
<rect x="8" y="44" width="1" height="1" fill="#AA5500" />
<rect x="9" y="44" width="1" height="1" fill="#FF8200" />
<rect x="10" y="44" width="1" height="1" fill="#AA5500" />
<rect x="11" y="44" width="1" height="1" fill="#AA5500" />
<rect x="12" y="44" width="1" height="1" fill="#AA5500" />
<rect x="13" y="44" width="1" height="1" fill="#FF8200" />
<rect x="14" y="44" width="1" height="1" fill="#FF8200" />
<rect x="15" y="44" width="1" height="1" fill="#FF8200" />
<rect x="16" y="44" width="1" height="1" fill="#AA5500" />
<rect x="17" y="44" width="1" height="1" fill="#FF8200" />
<rect x="18" y="44" width="1" height="1" fill="#AA5500" />
<rect x="19" y="44" width="1" height="1" fill="#AA5500" />
<rect x="20" y="44" width="1" height="1" fill="#000000" />
<rect x="21" y="44" width="1" height="1" fill="#000000" />
<rect x="3" y="45" width="1" height="1" fill="#000000" />
<rect x="4" y="45" width="1" height="1" fill="#AA5500" />
<rect x="5" y="45" width="1" height="1" fill="#FF8200" />
<rect x="6" y="45" width="1" height="1" fill="#FF8200" />
<rect x="7" y="45" width="1" height="1" fill="#AA5500" />
<rect x="8" y="45" width="1" height="1" fill="#AA5500" />
<rect x="9" y="45" width="1" height="1" fill="#FF8200" />
<rect x="10" y="45" width="1" height="1" fill="#AA5500" />
<rect x="11" y="45" width="1" height="1" fill="#AA5500" />
<rect x="12" y="45" width="1" height="1" fill="#AA5500" />
<rect x="13" y="45" width="1" height="1" fill="#FF8200" />
<rect x="14" y="45" width="1" height="1" fill="#AA5500" />
<rect x="15" y="45" width="1" height="1" fill="#AA5500" />
<rect x="16" y="45" width="1" height="1" fill="#AA5500" />
<rect x="17" y="45" width="1" height="1" fill="#FF8200" />
<rect x="18" y="45" width="1" height="1" fill="#FF8200" />
<rect x="19" y="45" width="1" height="1" fill="#000000" />
<rect x="3" y="46" width="1" height="1" fill="#000000" />
<rect x="4" y="46" width="1" height="1" fill="#AA5500" />
<rect x="5" y="46" width="1" height="1" fill="#AA5500" />
<rect x="6" y="46" width="1" height="1" fill="#FF8200" />
<rect x="7" y="46" width="1" height="1" fill="#AA5500" />
<rect x="8" y="46" width="1" height="1" fill="#AA5500" />
<rect x="9" y="46" width="1" height="1" fill="#FF8200" />
<rect x="10" y="46" width="1" height="1" fill="#AA5500" />
<rect x="11" y="46" width="1" height="1" fill="#AA5500" />
<rect x="12" y="46" width="1" height="1" fill="#FF8200" />
<rect x="13" y="46" width="1" height="1" fill="#FF8200" />
<rect x="14" y="46" width="1" height="1" fill="#AA5500" />
<rect x="15" y="46" width="1" height="1" fill="#AA5500" />
<rect x="16" y="46" width="1" height="1" fill="#AA5500" />
<rect x="17" y="46" width="1" height="1" fill="#000000" />
<rect x="18" y="46" width="1" height="1" fill="#000000" />
<rect x="3" y="47" width="1" height="1" fill="#000000" />
<rect x="4" y="47" width="1" height="1" fill="#AA5500" />
<rect x="5" y="47" width="1" height="1" fill="#AA5500" />
<rect x="6" y="47" width="1" height="1" fill="#FF8200" />
<rect x="7" y="47" width="1" height="1" fill="#FF8200" />
<rect x="8" y="47" width="1" height="1" fill="#FF8200" />
<rect x="9" y="47" width="1" height="1" fill="#FF8200" />
<rect x="10" y="47" width="1" height="1" fill="#AA5500" />
<rect x="11" y="47" width="1" height="1" fill="#FF8200" />
<rect x="12" y="47" width="1" height="1" fill="#FF8200" />
<rect x="13" y="47" width="1" height="1" fill="#AA5500" />
<rect x="14" y="47" width="1" height="1" fill="#AA5500" />
<rect x="15" y="47" width="1" height="1" fill="#000000" />
<rect x="16" y="47" width="1" height="1" fill="#000000" />
<rect x="3" y="48" width="1" height="1" fill="#000000" />
<rect x="4" y="48" width="1" height="1" fill="#AA5500" />
<rect x="5" y="48" width="1" height="1" fill="#AA5500" />
<rect x="6" y="48" width="1" height="1" fill="#AA5500" />
<rect x="7" y="48" width="1" height="1" fill="#FF8200" />
<rect x="8" y="48" width="1" height="1" fill="#FF8200" />
<rect x="9" y="48" width="1" height="1" fill="#AA5500" />
<rect x="10" y="48" width="1" height="1" fill="#AA5500" />
<rect x="11" y="48" width="1" height="1" fill="#FF8200" />
<rect x="12" y="48" width="1" height="1" fill="#AA5500" />
<rect x="13" y="48" width="1" height="1" fill="#000000" />
<rect x="14" y="48" width="1" height="1" fill="#000000" />
<rect x="3" y="49" width="1" height="1" fill="#000000" />
<rect x="4" y="49" width="1" height="1" fill="#AA5500" />
<rect x="5" y="49" width="1" height="1" fill="#AA5500" />
<rect x="6" y="49" width="1" height="1" fill="#FF8200" />
<rect x="7" y="49" width="1" height="1" fill="#FF8200" />
<rect x="8" y="49" width="1" height="1" fill="#AA5500" />
<rect x="9" y="49" width="1" height="1" fill="#AA5500" />
<rect x="10" y="49" width="1" height="1" fill="#000000" />
<rect x="11" y="49" width="1" height="1" fill="#000000" />
<rect x="12" y="49" width="1" height="1" fill="#000000" />
<rect x="3" y="50" width="1" height="1" fill="#000000" />
<rect x="4" y="50" width="1" height="1" fill="#AA5500" />
<rect x="5" y="50" width="1" height="1" fill="#FF8200" />
<rect x="6" y="50" width="1" height="1" fill="#FF8200" />
<rect x="7" y="50" width="1" height="1" fill="#AA5500" />
<rect x="8" y="50" width="1" height="1" fill="#000000" />
<rect x="9" y="50" width="1" height="1" fill="#000000" />
<rect x="4" y="51" width="1" height="1" fill="#000000" />
<rect x="5" y="51" width="1" height="1" fill="#000000" />
<rect x="6" y="51" width="1" height="1" fill="#000000" />
<rect x="7" y="51" width="1" height="1" fill="#000000" />
</svg>