<?xml version="1.0" encoding="UTF-8" ?>
<svg version="1.1" width="64" height="64" xmlns="http://www.w3.org/2000/svg" shape-rendering="crispEdges">
<!-- Gambler Class Icon - Two Dice -->
<!-- First Die (front, tilted) -->
<rect x="12" y="20" width="1" height="1" fill="#000000" />
<rect x="13" y="20" width="1" height="1" fill="#000000" />
<rect x="14" y="20" width="1" height="1" fill="#000000" />
<rect x="15" y="20" width="1" height="1" fill="#000000" />
<rect x="16" y="20" width="1" height="1" fill="#000000" />
<rect x="17" y="20" width="1" height="1" fill="#000000" />
<rect x="18" y="20" width="1" height="1" fill="#000000" />
<rect x="19" y="20" width="1" height="1" fill="#000000" />
<rect x="20" y="20" width="1" height="1" fill="#000000" />
<rect x="21" y="20" width="1" height="1" fill="#000000" />
<rect x="22" y="20" width="1" height="1" fill="#000000" />
<rect x="23" y="20" width="1" height="1" fill="#000000" />
<rect x="11" y="21" width="1" height="1" fill="#000000" />
<rect x="12" y="21" width="1" height="1" fill="#FFFFFF" />
<rect x="13" y="21" width="1" height="1" fill="#FFFFFF" />
<rect x="14" y="21" width="1" height="1" fill="#FFFFFF" />
<rect x="15" y="21" width="1" height="1" fill="#FFFFFF" />
<rect x="16" y="21" width="1" height="1" fill="#FFFFFF" />
<rect x="17" y="21" width="1" height="1" fill="#FFFFFF" />
<rect x="18" y="21" width="1" height="1" fill="#FFFFFF" />
<rect x="19" y="21" width="1" height="1" fill="#FFFFFF" />
<rect x="20" y="21" width="1" height="1" fill="#FFFFFF" />
<rect x="21" y="21" width="1" height="1" fill="#FFFFFF" />
<rect x="22" y="21" width="1" height="1" fill="#FFFFFF" />
<rect x="23" y="21" width="1" height="1" fill="#DDDDDD" />
<rect x="24" y="21" width="1" height="1" fill="#000000" />
<rect x="11" y="22" width="1" height="1" fill="#000000" />
<rect x="12" y="22" width="1" height="1" fill="#FFFFFF" />
<rect x="13" y="22" width="1" height="1" fill="#FFFFFF" />
<rect x="14" y="22" width="1" height="1" fill="#FFFFFF" />
<rect x="15" y="22" width="1" height="1" fill="#FFFFFF" />
<rect x="16" y="22" width="1" height="1" fill="#FFFFFF" />
<rect x="17" y="22" width="1" height="1" fill="#FFFFFF" />
<rect x="18" y="22" width="1" height="1" fill="#FFFFFF" />
<rect x="19" y="22" width="1" height="1" fill="#FFFFFF" />
<rect x="20" y="22" width="1" height="1" fill="#FFFFFF" />
<rect x="21" y="22" width="1" height="1" fill="#FFFFFF" />
<rect x="22" y="22" width="1" height="1" fill="#FFFFFF" />
<rect x="23" y="22" width="1" height="1" fill="#DDDDDD" />
<rect x="24" y="22" width="1" height="1" fill="#000000" />
<rect x="11" y="23" width="1" height="1" fill="#000000" />
<rect x="12" y="23" width="1" height="1" fill="#FFFFFF" />
<rect x="13" y="23" width="1" height="1" fill="#FFFFFF" />
<rect x="14" y="23" width="1" height="1" fill="#B4202A" />
<rect x="15" y="23" width="1" height="1" fill="#B4202A" />
<rect x="16" y="23" width="1" height="1" fill="#FFFFFF" />
<rect x="17" y="23" width="1" height="1" fill="#FFFFFF" />
<rect x="18" y="23" width="1" height="1" fill="#FFFFFF" />
<rect x="19" y="23" width="1" height="1" fill="#FFFFFF" />
<rect x="20" y="23" width="1" height="1" fill="#B4202A" />
<rect x="21" y="23" width="1" height="1" fill="#B4202A" />
<rect x="22" y="23" width="1" height="1" fill="#FFFFFF" />
<rect x="23" y="23" width="1" height="1" fill="#DDDDDD" />
<rect x="24" y="23" width="1" height="1" fill="#000000" />
<rect x="11" y="24" width="1" height="1" fill="#000000" />
<rect x="12" y="24" width="1" height="1" fill="#FFFFFF" />
<rect x="13" y="24" width="1" height="1" fill="#FFFFFF" />
<rect x="14" y="24" width="1" height="1" fill="#B4202A" />
<rect x="15" y="24" width="1" height="1" fill="#B4202A" />
<rect x="16" y="24" width="1" height="1" fill="#FFFFFF" />
<rect x="17" y="24" width="1" height="1" fill="#FFFFFF" />
<rect x="18" y="24" width="1" height="1" fill="#FFFFFF" />
<rect x="19" y="24" width="1" height="1" fill="#FFFFFF" />
<rect x="20" y="24" width="1" height="1" fill="#B4202A" />
<rect x="21" y="24" width="1" height="1" fill="#B4202A" />
<rect x="22" y="24" width="1" height="1" fill="#FFFFFF" />
<rect x="23" y="24" width="1" height="1" fill="#DDDDDD" />
<rect x="24" y="24" width="1" height="1" fill="#000000" />
<rect x="11" y="25" width="1" height="1" fill="#000000" />
<rect x="12" y="25" width="1" height="1" fill="#FFFFFF" />
<rect x="13" y="25" width="1" height="1" fill="#FFFFFF" />
<rect x="14" y="25" width="1" height="1" fill="#FFFFFF" />
<rect x="15" y="25" width="1" height="1" fill="#FFFFFF" />
<rect x="16" y="25" width="1" height="1" fill="#FFFFFF" />
<rect x="17" y="25" width="1" height="1" fill="#FFFFFF" />
<rect x="18" y="25" width="1" height="1" fill="#FFFFFF" />
<rect x="19" y="25" width="1" height="1" fill="#FFFFFF" />
<rect x="20" y="25" width="1" height="1" fill="#FFFFFF" />
<rect x="21" y="25" width="1" height="1" fill="#FFFFFF" />
<rect x="22" y="25" width="1" height="1" fill="#FFFFFF" />
<rect x="23" y="25" width="1" height="1" fill="#DDDDDD" />
<rect x="24" y="25" width="1" height="1" fill="#000000" />
<rect x="11" y="26" width="1" height="1" fill="#000000" />
<rect x="12" y="26" width="1" height="1" fill="#FFFFFF" />
<rect x="13" y="26" width="1" height="1" fill="#FFFFFF" />
<rect x="14" y="26" width="1" height="1" fill="#FFFFFF" />
<rect x="15" y="26" width="1" height="1" fill="#FFFFFF" />
<rect x="16" y="26" width="1" height="1" fill="#FFFFFF" />
<rect x="17" y="26" width="1" height="1" fill="#B4202A" />
<rect x="18" y="26" width="1" height="1" fill="#B4202A" />
<rect x="19" y="26" width="1" height="1" fill="#FFFFFF" />
<rect x="20" y="26" width="1" height="1" fill="#FFFFFF" />
<rect x="21" y="26" width="1" height="1" fill="#FFFFFF" />
<rect x="22" y="26" width="1" height="1" fill="#FFFFFF" />
<rect x="23" y="26" width="1" height="1" fill="#DDDDDD" />
<rect x="24" y="26" width="1" height="1" fill="#000000" />
<rect x="11" y="27" width="1" height="1" fill="#000000" />
<rect x="12" y="27" width="1" height="1" fill="#FFFFFF" />
<rect x="13" y="27" width="1" height="1" fill="#FFFFFF" />
<rect x="14" y="27" width="1" height="1" fill="#FFFFFF" />
<rect x="15" y="27" width="1" height="1" fill="#FFFFFF" />
<rect x="16" y="27" width="1" height="1" fill="#FFFFFF" />
<rect x="17" y="27" width="1" height="1" fill="#B4202A" />
<rect x="18" y="27" width="1" height="1" fill="#B4202A" />
<rect x="19" y="27" width="1" height="1" fill="#FFFFFF" />
<rect x="20" y="27" width="1" height="1" fill="#FFFFFF" />
<rect x="21" y="27" width="1" height="1" fill="#FFFFFF" />
<rect x="22" y="27" width="1" height="1" fill="#FFFFFF" />
<rect x="23" y="27" width="1" height="1" fill="#DDDDDD" />
<rect x="24" y="27" width="1" height="1" fill="#000000" />
<rect x="11" y="28" width="1" height="1" fill="#000000" />
<rect x="12" y="28" width="1" height="1" fill="#FFFFFF" />
<rect x="13" y="28" width="1" height="1" fill="#FFFFFF" />
<rect x="14" y="28" width="1" height="1" fill="#FFFFFF" />
<rect x="15" y="28" width="1" height="1" fill="#FFFFFF" />
<rect x="16" y="28" width="1" height="1" fill="#FFFFFF" />
<rect x="17" y="28" width="1" height="1" fill="#FFFFFF" />
<rect x="18" y="28" width="1" height="1" fill="#FFFFFF" />
<rect x="19" y="28" width="1" height="1" fill="#FFFFFF" />
<rect x="20" y="28" width="1" height="1" fill="#FFFFFF" />
<rect x="21" y="28" width="1" height="1" fill="#FFFFFF" />
<rect x="22" y="28" width="1" height="1" fill="#FFFFFF" />
<rect x="23" y="28" width="1" height="1" fill="#DDDDDD" />
<rect x="24" y="28" width="1" height="1" fill="#000000" />
<rect x="11" y="29" width="1" height="1" fill="#000000" />
<rect x="12" y="29" width="1" height="1" fill="#FFFFFF" />
<rect x="13" y="29" width="1" height="1" fill="#FFFFFF" />
<rect x="14" y="29" width="1" height="1" fill="#B4202A" />
<rect x="15" y="29" width="1" height="1" fill="#B4202A" />
<rect x="16" y="29" width="1" height="1" fill="#FFFFFF" />
<rect x="17" y="29" width="1" height="1" fill="#FFFFFF" />
<rect x="18" y="29" width="1" height="1" fill="#FFFFFF" />
<rect x="19" y="29" width="1" height="1" fill="#FFFFFF" />
<rect x="20" y="29" width="1" height="1" fill="#B4202A" />
<rect x="21" y="29" width="1" height="1" fill="#B4202A" />
<rect x="22" y="29" width="1" height="1" fill="#FFFFFF" />
<rect x="23" y="29" width="1" height="1" fill="#DDDDDD" />
<rect x="24" y="29" width="1" height="1" fill="#000000" />
<rect x="11" y="30" width="1" height="1" fill="#000000" />
<rect x="12" y="30" width="1" height="1" fill="#FFFFFF" />
<rect x="13" y="30" width="1" height="1" fill="#FFFFFF" />
<rect x="14" y="30" width="1" height="1" fill="#B4202A" />
<rect x="15" y="30" width="1" height="1" fill="#B4202A" />
<rect x="16" y="30" width="1" height="1" fill="#FFFFFF" />
<rect x="17" y="30" width="1" height="1" fill="#FFFFFF" />
<rect x="18" y="30" width="1" height="1" fill="#FFFFFF" />
<rect x="19" y="30" width="1" height="1" fill="#FFFFFF" />
<rect x="20" y="30" width="1" height="1" fill="#B4202A" />
<rect x="21" y="30" width="1" height="1" fill="#B4202A" />
<rect x="22" y="30" width="1" height="1" fill="#FFFFFF" />
<rect x="23" y="30" width="1" height="1" fill="#DDDDDD" />
<rect x="24" y="30" width="1" height="1" fill="#000000" />
<rect x="11" y="31" width="1" height="1" fill="#000000" />
<rect x="12" y="31" width="1" height="1" fill="#DDDDDD" />
<rect x="13" y="31" width="1" height="1" fill="#DDDDDD" />
<rect x="14" y="31" width="1" height="1" fill="#DDDDDD" />
<rect x="15" y="31" width="1" height="1" fill="#DDDDDD" />
<rect x="16" y="31" width="1" height="1" fill="#DDDDDD" />
<rect x="17" y="31" width="1" height="1" fill="#DDDDDD" />
<rect x="18" y="31" width="1" height="1" fill="#DDDDDD" />
<rect x="19" y="31" width="1" height="1" fill="#DDDDDD" />
<rect x="20" y="31" width="1" height="1" fill="#DDDDDD" />
<rect x="21" y="31" width="1" height="1" fill="#DDDDDD" />
<rect x="22" y="31" width="1" height="1" fill="#DDDDDD" />
<rect x="23" y="31" width="1" height="1" fill="#BBBBBB" />
<rect x="24" y="31" width="1" height="1" fill="#000000" />
<rect x="12" y="32" width="1" height="1" fill="#000000" />
<rect x="13" y="32" width="1" height="1" fill="#000000" />
<rect x="14" y="32" width="1" height="1" fill="#000000" />
<rect x="15" y="32" width="1" height="1" fill="#000000" />
<rect x="16" y="32" width="1" height="1" fill="#000000" />
<rect x="17" y="32" width="1" height="1" fill="#000000" />
<rect x="18" y="32" width="1" height="1" fill="#000000" />
<rect x="19" y="32" width="1" height="1" fill="#000000" />
<rect x="20" y="32" width="1" height="1" fill="#000000" />
<rect x="21" y="32" width="1" height="1" fill="#000000" />
<rect x="22" y="32" width="1" height="1" fill="#000000" />
<rect x="23" y="32" width="1" height="1" fill="#000000" />
<rect x="24" y="32" width="1" height="1" fill="#000000" />
<!-- Second Die (back, gold/lucky) -->
<rect x="36" y="28" width="1" height="1" fill="#000000" />
<rect x="37" y="28" width="1" height="1" fill="#000000" />
<rect x="38" y="28" width="1" height="1" fill="#000000" />
<rect x="39" y="28" width="1" height="1" fill="#000000" />
<rect x="40" y="28" width="1" height="1" fill="#000000" />
<rect x="41" y="28" width="1" height="1" fill="#000000" />
<rect x="42" y="28" width="1" height="1" fill="#000000" />
<rect x="43" y="28" width="1" height="1" fill="#000000" />
<rect x="44" y="28" width="1" height="1" fill="#000000" />
<rect x="45" y="28" width="1" height="1" fill="#000000" />
<rect x="46" y="28" width="1" height="1" fill="#000000" />
<rect x="47" y="28" width="1" height="1" fill="#000000" />
<rect x="35" y="29" width="1" height="1" fill="#000000" />
<rect x="36" y="29" width="1" height="1" fill="#FFD700" />
<rect x="37" y="29" width="1" height="1" fill="#FFD700" />
<rect x="38" y="29" width="1" height="1" fill="#FFD700" />
<rect x="39" y="29" width="1" height="1" fill="#FFD700" />
<rect x="40" y="29" width="1" height="1" fill="#FFD700" />
<rect x="41" y="29" width="1" height="1" fill="#FFD700" />
<rect x="42" y="29" width="1" height="1" fill="#FFD700" />
<rect x="43" y="29" width="1" height="1" fill="#FFD700" />
<rect x="44" y="29" width="1" height="1" fill="#FFD700" />
<rect x="45" y="29" width="1" height="1" fill="#FFD700" />
<rect x="46" y="29" width="1" height="1" fill="#FFD700" />
<rect x="47" y="29" width="1" height="1" fill="#DAA520" />
<rect x="48" y="29" width="1" height="1" fill="#000000" />
<rect x="35" y="30" width="1" height="1" fill="#000000" />
<rect x="36" y="30" width="1" height="1" fill="#FFD700" />
<rect x="37" y="30" width="1" height="1" fill="#FFD700" />
<rect x="38" y="30" width="1" height="1" fill="#FFD700" />
<rect x="39" y="30" width="1" height="1" fill="#FFD700" />
<rect x="40" y="30" width="1" height="1" fill="#FFD700" />
<rect x="41" y="30" width="1" height="1" fill="#FFD700" />
<rect x="42" y="30" width="1" height="1" fill="#FFD700" />
<rect x="43" y="30" width="1" height="1" fill="#FFD700" />
<rect x="44" y="30" width="1" height="1" fill="#FFD700" />
<rect x="45" y="30" width="1" height="1" fill="#FFD700" />
<rect x="46" y="30" width="1" height="1" fill="#FFD700" />
<rect x="47" y="30" width="1" height="1" fill="#DAA520" />
<rect x="48" y="30" width="1" height="1" fill="#000000" />
<rect x="35" y="31" width="1" height="1" fill="#000000" />
<rect x="36" y="31" width="1" height="1" fill="#FFD700" />
<rect x="37" y="31" width="1" height="1" fill="#FFD700" />
<rect x="38" y="31" width="1" height="1" fill="#000000" />
<rect x="39" y="31" width="1" height="1" fill="#000000" />
<rect x="40" y="31" width="1" height="1" fill="#FFD700" />
<rect x="41" y="31" width="1" height="1" fill="#FFD700" />
<rect x="42" y="31" width="1" height="1" fill="#FFD700" />
<rect x="43" y="31" width="1" height="1" fill="#FFD700" />
<rect x="44" y="31" width="1" height="1" fill="#000000" />
<rect x="45" y="31" width="1" height="1" fill="#000000" />
<rect x="46" y="31" width="1" height="1" fill="#FFD700" />
<rect x="47" y="31" width="1" height="1" fill="#DAA520" />
<rect x="48" y="31" width="1" height="1" fill="#000000" />
<rect x="35" y="32" width="1" height="1" fill="#000000" />
<rect x="36" y="32" width="1" height="1" fill="#FFD700" />
<rect x="37" y="32" width="1" height="1" fill="#FFD700" />
<rect x="38" y="32" width="1" height="1" fill="#000000" />
<rect x="39" y="32" width="1" height="1" fill="#000000" />
<rect x="40" y="32" width="1" height="1" fill="#FFD700" />
<rect x="41" y="32" width="1" height="1" fill="#FFD700" />
<rect x="42" y="32" width="1" height="1" fill="#FFD700" />
<rect x="43" y="32" width="1" height="1" fill="#FFD700" />
<rect x="44" y="32" width="1" height="1" fill="#000000" />
<rect x="45" y="32" width="1" height="1" fill="#000000" />
<rect x="46" y="32" width="1" height="1" fill="#FFD700" />
<rect x="47" y="32" width="1" height="1" fill="#DAA520" />
<rect x="48" y="32" width="1" height="1" fill="#000000" />
<rect x="35" y="33" width="1" height="1" fill="#000000" />
<rect x="36" y="33" width="1" height="1" fill="#FFD700" />
<rect x="37" y="33" width="1" height="1" fill="#FFD700" />
<rect x="38" y="33" width="1" height="1" fill="#FFD700" />
<rect x="39" y="33" width="1" height="1" fill="#FFD700" />
<rect x="40" y="33" width="1" height="1" fill="#FFD700" />
<rect x="41" y="33" width="1" height="1" fill="#000000" />
<rect x="42" y="33" width="1" height="1" fill="#000000" />
<rect x="43" y="33" width="1" height="1" fill="#FFD700" />
<rect x="44" y="33" width="1" height="1" fill="#FFD700" />
<rect x="45" y="33" width="1" height="1" fill="#FFD700" />
<rect x="46" y="33" width="1" height="1" fill="#FFD700" />
<rect x="47" y="33" width="1" height="1" fill="#DAA520" />
<rect x="48" y="33" width="1" height="1" fill="#000000" />
<rect x="35" y="34" width="1" height="1" fill="#000000" />
<rect x="36" y="34" width="1" height="1" fill="#FFD700" />
<rect x="37" y="34" width="1" height="1" fill="#FFD700" />
<rect x="38" y="34" width="1" height="1" fill="#FFD700" />
<rect x="39" y="34" width="1" height="1" fill="#FFD700" />
<rect x="40" y="34" width="1" height="1" fill="#FFD700" />
<rect x="41" y="34" width="1" height="1" fill="#000000" />
<rect x="42" y="34" width="1" height="1" fill="#000000" />
<rect x="43" y="34" width="1" height="1" fill="#FFD700" />
<rect x="44" y="34" width="1" height="1" fill="#FFD700" />
<rect x="45" y="34" width="1" height="1" fill="#FFD700" />
<rect x="46" y="34" width="1" height="1" fill="#FFD700" />
<rect x="47" y="34" width="1" height="1" fill="#DAA520" />
<rect x="48" y="34" width="1" height="1" fill="#000000" />
<rect x="35" y="35" width="1" height="1" fill="#000000" />
<rect x="36" y="35" width="1" height="1" fill="#FFD700" />
<rect x="37" y="35" width="1" height="1" fill="#FFD700" />
<rect x="38" y="35" width="1" height="1" fill="#FFD700" />
<rect x="39" y="35" width="1" height="1" fill="#FFD700" />
<rect x="40" y="35" width="1" height="1" fill="#FFD700" />
<rect x="41" y="35" width="1" height="1" fill="#FFD700" />
<rect x="42" y="35" width="1" height="1" fill="#FFD700" />
<rect x="43" y="35" width="1" height="1" fill="#FFD700" />
<rect x="44" y="35" width="1" height="1" fill="#FFD700" />
<rect x="45" y="35" width="1" height="1" fill="#FFD700" />
<rect x="46" y="35" width="1" height="1" fill="#FFD700" />
<rect x="47" y="35" width="1" height="1" fill="#DAA520" />
<rect x="48" y="35" width="1" height="1" fill="#000000" />
<rect x="35" y="36" width="1" height="1" fill="#000000" />
<rect x="36" y="36" width="1" height="1" fill="#FFD700" />
<rect x="37" y="36" width="1" height="1" fill="#FFD700" />
<rect x="38" y="36" width="1" height="1" fill="#000000" />
<rect x="39" y="36" width="1" height="1" fill="#000000" />
<rect x="40" y="36" width="1" height="1" fill="#FFD700" />
<rect x="41" y="36" width="1" height="1" fill="#FFD700" />
<rect x="42" y="36" width="1" height="1" fill="#FFD700" />
<rect x="43" y="36" width="1" height="1" fill="#FFD700" />
<rect x="44" y="36" width="1" height="1" fill="#000000" />
<rect x="45" y="36" width="1" height="1" fill="#000000" />
<rect x="46" y="36" width="1" height="1" fill="#FFD700" />
<rect x="47" y="36" width="1" height="1" fill="#DAA520" />
<rect x="48" y="36" width="1" height="1" fill="#000000" />
<rect x="35" y="37" width="1" height="1" fill="#000000" />
<rect x="36" y="37" width="1" height="1" fill="#FFD700" />
<rect x="37" y="37" width="1" height="1" fill="#FFD700" />
<rect x="38" y="37" width="1" height="1" fill="#000000" />
<rect x="39" y="37" width="1" height="1" fill="#000000" />
<rect x="40" y="37" width="1" height="1" fill="#FFD700" />
<rect x="41" y="37" width="1" height="1" fill="#FFD700" />
<rect x="42" y="37" width="1" height="1" fill="#FFD700" />
<rect x="43" y="37" width="1" height="1" fill="#FFD700" />
<rect x="44" y="37" width="1" height="1" fill="#000000" />
<rect x="45" y="37" width="1" height="1" fill="#000000" />
<rect x="46" y="37" width="1" height="1" fill="#FFD700" />
<rect x="47" y="37" width="1" height="1" fill="#DAA520" />
<rect x="48" y="37" width="1" height="1" fill="#000000" />
<rect x="35" y="38" width="1" height="1" fill="#000000" />
<rect x="36" y="38" width="1" height="1" fill="#FFD700" />
<rect x="37" y="38" width="1" height="1" fill="#FFD700" />
<rect x="38" y="38" width="1" height="1" fill="#FFD700" />
<rect x="39" y="38" width="1" height="1" fill="#FFD700" />
<rect x="40" y="38" width="1" height="1" fill="#FFD700" />
<rect x="41" y="38" width="1" height="1" fill="#FFD700" />
<rect x="42" y="38" width="1" height="1" fill="#FFD700" />
<rect x="43" y="38" width="1" height="1" fill="#FFD700" />
<rect x="44" y="38" width="1" height="1" fill="#FFD700" />
<rect x="45" y="38" width="1" height="1" fill="#FFD700" />
<rect x="46" y="38" width="1" height="1" fill="#FFD700" />
<rect x="47" y="38" width="1" height="1" fill="#DAA520" />
<rect x="48" y="38" width="1" height="1" fill="#000000" />
<rect x="35" y="39" width="1" height="1" fill="#000000" />
<rect x="36" y="39" width="1" height="1" fill="#DAA520" />
<rect x="37" y="39" width="1" height="1" fill="#DAA520" />
<rect x="38" y="39" width="1" height="1" fill="#DAA520" />
<rect x="39" y="39" width="1" height="1" fill="#DAA520" />
<rect x="40" y="39" width="1" height="1" fill="#DAA520" />
<rect x="41" y="39" width="1" height="1" fill="#DAA520" />
<rect x="42" y="39" width="1" height="1" fill="#DAA520" />
<rect x="43" y="39" width="1" height="1" fill="#DAA520" />
<rect x="44" y="39" width="1" height="1" fill="#DAA520" />
<rect x="45" y="39" width="1" height="1" fill="#DAA520" />
<rect x="46" y="39" width="1" height="1" fill="#DAA520" />
<rect x="47" y="39" width="1" height="1" fill="#B8860B" />
<rect x="48" y="39" width="1" height="1" fill="#000000" />
<rect x="36" y="40" width="1" height="1" fill="#000000" />
<rect x="37" y="40" width="1" height="1" fill="#000000" />
<rect x="38" y="40" width="1" height="1" fill="#000000" />
<rect x="39" y="40" width="1" height="1" fill="#000000" />
<rect x="40" y="40" width="1" height="1" fill="#000000" />
<rect x="41" y="40" width="1" height="1" fill="#000000" />
<rect x="42" y="40" width="1" height="1" fill="#000000" />
<rect x="43" y="40" width="1" height="1" fill="#000000" />
<rect x="44" y="40" width="1" height="1" fill="#000000" />
<rect x="45" y="40" width="1" height="1" fill="#000000" />
<rect x="46" y="40" width="1" height="1" fill="#000000" />
<rect x="47" y="40" width="1" height="1" fill="#000000" />
<rect x="48" y="40" width="1" height="1" fill="#000000" />
</svg>
