<svg xmlns="http://www.w3.org/2000/svg" viewBox="0 0 64 64" shape-rendering="crispEdges">
  <!-- PoopMaster Class Icon: Classic poop emoji style -->

  <!-- Top swirl peak -->
  <rect x="30" y="8" width="4" height="1" fill="#6B4423"/>
  <rect x="28" y="9" width="8" height="1" fill="#7B5433"/>
  <rect x="27" y="10" width="10" height="1" fill="#8B6443"/>
  <rect x="26" y="11" width="11" height="1" fill="#8B6443"/>
  <rect x="25" y="12" width="12" height="1" fill="#7B5433"/>
  <rect x="24" y="13" width="12" height="1" fill="#6B4423"/>
  <rect x="23" y="14" width="12" height="1" fill="#5B3413"/>

  <!-- Swirl tip highlight -->
  <rect x="31" y="9" width="3" height="1" fill="#9B7453"/>
  <rect x="29" y="10" width="4" height="1" fill="#9B7453"/>

  <!-- Upper coil -->
  <rect x="20" y="15" width="24" height="1" fill="#5B3413"/>
  <rect x="18" y="16" width="28" height="1" fill="#6B4423"/>
  <rect x="16" y="17" width="32" height="1" fill="#7B5433"/>
  <rect x="15" y="18" width="34" height="1" fill="#8B6443"/>
  <rect x="14" y="19" width="36" height="1" fill="#8B6443"/>
  <rect x="14" y="20" width="36" height="1" fill="#7B5433"/>
  <rect x="15" y="21" width="34" height="1" fill="#6B4423"/>
  <rect x="16" y="22" width="32" height="1" fill="#5B3413"/>

  <!-- Upper coil highlight -->
  <rect x="18" y="17" width="8" height="1" fill="#9B7453"/>
  <rect x="16" y="18" width="10" height="1" fill="#9B7453"/>
  <rect x="15" y="19" width="8" height="1" fill="#9B7453"/>

  <!-- Middle coil -->
  <rect x="12" y="23" width="40" height="1" fill="#5B3413"/>
  <rect x="10" y="24" width="44" height="1" fill="#6B4423"/>
  <rect x="9" y="25" width="46" height="1" fill="#7B5433"/>
  <rect x="8" y="26" width="48" height="1" fill="#8B6443"/>
  <rect x="8" y="27" width="48" height="1" fill="#8B6443"/>
  <rect x="8" y="28" width="48" height="1" fill="#8B6443"/>
  <rect x="9" y="29" width="46" height="1" fill="#7B5433"/>
  <rect x="10" y="30" width="44" height="1" fill="#6B4423"/>
  <rect x="12" y="31" width="40" height="1" fill="#5B3413"/>

  <!-- Middle coil highlight -->
  <rect x="12" y="25" width="10" height="1" fill="#9B7453"/>
  <rect x="10" y="26" width="12" height="1" fill="#9B7453"/>
  <rect x="10" y="27" width="10" height="1" fill="#9B7453"/>

  <!-- Base coil (widest) -->
  <rect x="10" y="32" width="44" height="1" fill="#5B3413"/>
  <rect x="8" y="33" width="48" height="1" fill="#6B4423"/>
  <rect x="7" y="34" width="50" height="1" fill="#6B4423"/>
  <rect x="6" y="35" width="52" height="1" fill="#7B5433"/>
  <rect x="6" y="36" width="52" height="1" fill="#7B5433"/>
  <rect x="6" y="37" width="52" height="1" fill="#8B6443"/>
  <rect x="6" y="38" width="52" height="1" fill="#8B6443"/>
  <rect x="6" y="39" width="52" height="1" fill="#8B6443"/>
  <rect x="6" y="40" width="52" height="1" fill="#7B5433"/>
  <rect x="6" y="41" width="52" height="1" fill="#7B5433"/>
  <rect x="7" y="42" width="50" height="1" fill="#6B4423"/>
  <rect x="8" y="43" width="48" height="1" fill="#6B4423"/>
  <rect x="10" y="44" width="44" height="1" fill="#5B3413"/>

  <!-- Base highlight -->
  <rect x="10" y="35" width="12" height="1" fill="#9B7453"/>
  <rect x="8" y="36" width="14" height="1" fill="#9B7453"/>
  <rect x="8" y="37" width="12" height="1" fill="#9B7453"/>
  <rect x="8" y="38" width="10" height="1" fill="#9B7453"/>

  <!-- Bottom edge (sitting on ground) -->
  <rect x="12" y="45" width="40" height="1" fill="#4B2413"/>
  <rect x="14" y="46" width="36" height="1" fill="#4B2413"/>
  <rect x="16" y="47" width="32" height="1" fill="#3B1403"/>

  <!-- Face - eyes -->
  <!-- Left eye white -->
  <rect x="20" y="36" width="6" height="5" fill="#FFFFFF"/>
  <rect x="19" y="37" width="1" height="3" fill="#FFFFFF"/>
  <rect x="26" y="37" width="1" height="3" fill="#FFFFFF"/>
  <!-- Left pupil -->
  <rect x="22" y="37" width="3" height="3" fill="#1A1A1A"/>
  <rect x="23" y="38" width="1" height="1" fill="#FFFFFF"/>

  <!-- Right eye white -->
  <rect x="38" y="36" width="6" height="5" fill="#FFFFFF"/>
  <rect x="37" y="37" width="1" height="3" fill="#FFFFFF"/>
  <rect x="44" y="37" width="1" height="3" fill="#FFFFFF"/>
  <!-- Right pupil -->
  <rect x="39" y="37" width="3" height="3" fill="#1A1A1A"/>
  <rect x="40" y="38" width="1" height="1" fill="#FFFFFF"/>

  <!-- Smile -->
  <rect x="26" y="42" width="12" height="1" fill="#1A1A1A"/>
  <rect x="24" y="41" width="2" height="1" fill="#1A1A1A"/>
  <rect x="38" y="41" width="2" height="1" fill="#1A1A1A"/>

  <!-- Stink lines -->
  <rect x="4" y="20" width="1" height="3" fill="#8B9A5B"/>
  <rect x="3" y="18" width="1" height="2" fill="#8B9A5B"/>
  <rect x="5" y="16" width="1" height="2" fill="#8B9A5B"/>

  <rect x="58" y="22" width="1" height="3" fill="#8B9A5B"/>
  <rect x="59" y="19" width="1" height="3" fill="#8B9A5B"/>
  <rect x="57" y="17" width="1" height="2" fill="#8B9A5B"/>

  <rect x="30" y="3" width="1" height="3" fill="#8B9A5B"/>
  <rect x="33" y="2" width="1" height="3" fill="#8B9A5B"/>
  <rect x="28" y="4" width="1" height="2" fill="#8B9A5B"/>
</svg>