<?xml version="1.0" encoding="UTF-8" ?>
<svg version="1.1" width="64" height="64" xmlns="http://www.w3.org/2000/svg" shape-rendering="crispEdges">
<!-- Shadeweaver Class Icon - Hooded Shadow Figure -->
<!-- Hood outline top -->
<rect x="24" y="8" width="1" height="1" fill="#1A0A2E" />
<rect x="25" y="8" width="1" height="1" fill="#1A0A2E" />
<rect x="26" y="8" width="1" height="1" fill="#1A0A2E" />
<rect x="27" y="8" width="1" height="1" fill="#1A0A2E" />
<rect x="28" y="8" width="1" height="1" fill="#1A0A2E" />
<rect x="29" y="8" width="1" height="1" fill="#1A0A2E" />
<rect x="30" y="8" width="1" height="1" fill="#1A0A2E" />
<rect x="31" y="8" width="1" height="1" fill="#1A0A2E" />
<rect x="32" y="8" width="1" height="1" fill="#1A0A2E" />
<rect x="33" y="8" width="1" height="1" fill="#1A0A2E" />
<rect x="34" y="8" width="1" height="1" fill="#1A0A2E" />
<rect x="35" y="8" width="1" height="1" fill="#1A0A2E" />
<rect x="36" y="8" width="1" height="1" fill="#1A0A2E" />
<rect x="37" y="8" width="1" height="1" fill="#1A0A2E" />
<rect x="38" y="8" width="1" height="1" fill="#1A0A2E" />
<rect x="39" y="8" width="1" height="1" fill="#1A0A2E" />
<!-- Row 9 -->
<rect x="22" y="9" width="1" height="1" fill="#1A0A2E" />
<rect x="23" y="9" width="1" height="1" fill="#2D1B4E" />
<rect x="24" y="9" width="1" height="1" fill="#3D2B5E" />
<rect x="25" y="9" width="1" height="1" fill="#4D3B6E" />
<rect x="26" y="9" width="1" height="1" fill="#4D3B6E" />
<rect x="27" y="9" width="1" height="1" fill="#5D4B7E" />
<rect x="28" y="9" width="1" height="1" fill="#5D4B7E" />
<rect x="29" y="9" width="1" height="1" fill="#6D5B8E" />
<rect x="30" y="9" width="1" height="1" fill="#6D5B8E" />
<rect x="31" y="9" width="1" height="1" fill="#7D6B9E" />
<rect x="32" y="9" width="1" height="1" fill="#7D6B9E" />
<rect x="33" y="9" width="1" height="1" fill="#6D5B8E" />
<rect x="34" y="9" width="1" height="1" fill="#6D5B8E" />
<rect x="35" y="9" width="1" height="1" fill="#5D4B7E" />
<rect x="36" y="9" width="1" height="1" fill="#5D4B7E" />
<rect x="37" y="9" width="1" height="1" fill="#4D3B6E" />
<rect x="38" y="9" width="1" height="1" fill="#3D2B5E" />
<rect x="39" y="9" width="1" height="1" fill="#2D1B4E" />
<rect x="40" y="9" width="1" height="1" fill="#1A0A2E" />
<rect x="41" y="9" width="1" height="1" fill="#1A0A2E" />
<!-- Rows 10-14 Hood expanding -->
<rect x="20" y="10" width="1" height="1" fill="#1A0A2E" />
<rect x="21" y="10" width="1" height="1" fill="#2D1B4E" />
<rect x="22" y="10" width="1" height="1" fill="#3D2B5E" />
<rect x="23" y="10" width="1" height="1" fill="#4D3B6E" />
<rect x="24" y="10" width="1" height="1" fill="#5D4B7E" />
<rect x="25" y="10" width="1" height="1" fill="#6D5B8E" />
<rect x="26" y="10" width="1" height="1" fill="#7D6B9E" />
<rect x="27" y="10" width="1" height="1" fill="#8D7BAE" />
<rect x="28" y="10" width="1" height="1" fill="#8D7BAE" />
<rect x="29" y="10" width="1" height="1" fill="#9D8BBE" />
<rect x="30" y="10" width="1" height="1" fill="#9D8BBE" />
<rect x="31" y="10" width="1" height="1" fill="#9D8BBE" />
<rect x="32" y="10" width="1" height="1" fill="#9D8BBE" />
<rect x="33" y="10" width="1" height="1" fill="#8D7BAE" />
<rect x="34" y="10" width="1" height="1" fill="#8D7BAE" />
<rect x="35" y="10" width="1" height="1" fill="#7D6B9E" />
<rect x="36" y="10" width="1" height="1" fill="#6D5B8E" />
<rect x="37" y="10" width="1" height="1" fill="#5D4B7E" />
<rect x="38" y="10" width="1" height="1" fill="#4D3B6E" />
<rect x="39" y="10" width="1" height="1" fill="#3D2B5E" />
<rect x="40" y="10" width="1" height="1" fill="#2D1B4E" />
<rect x="41" y="10" width="1" height="1" fill="#1A0A2E" />
<rect x="42" y="10" width="1" height="1" fill="#1A0A2E" />
<!-- Row 11 -->
<rect x="18" y="11" width="1" height="1" fill="#1A0A2E" />
<rect x="19" y="11" width="1" height="1" fill="#2D1B4E" />
<rect x="20" y="11" width="1" height="1" fill="#3D2B5E" />
<rect x="21" y="11" width="1" height="1" fill="#4D3B6E" />
<rect x="22" y="11" width="1" height="1" fill="#5D4B7E" />
<rect x="23" y="11" width="1" height="1" fill="#6D5B8E" />
<rect x="24" y="11" width="1" height="1" fill="#7D6B9E" />
<rect x="25" y="11" width="1" height="1" fill="#8D7BAE" />
<rect x="26" y="11" width="1" height="1" fill="#9D8BBE" />
<rect x="27" y="11" width="1" height="1" fill="#9D8BBE" />
<rect x="28" y="11" width="1" height="1" fill="#9D8BBE" />
<rect x="29" y="11" width="1" height="1" fill="#9D8BBE" />
<rect x="30" y="11" width="1" height="1" fill="#9D8BBE" />
<rect x="31" y="11" width="1" height="1" fill="#9D8BBE" />
<rect x="32" y="11" width="1" height="1" fill="#9D8BBE" />
<rect x="33" y="11" width="1" height="1" fill="#9D8BBE" />
<rect x="34" y="11" width="1" height="1" fill="#9D8BBE" />
<rect x="35" y="11" width="1" height="1" fill="#9D8BBE" />
<rect x="36" y="11" width="1" height="1" fill="#8D7BAE" />
<rect x="37" y="11" width="1" height="1" fill="#7D6B9E" />
<rect x="38" y="11" width="1" height="1" fill="#6D5B8E" />
<rect x="39" y="11" width="1" height="1" fill="#5D4B7E" />
<rect x="40" y="11" width="1" height="1" fill="#4D3B6E" />
<rect x="41" y="11" width="1" height="1" fill="#3D2B5E" />
<rect x="42" y="11" width="1" height="1" fill="#2D1B4E" />
<rect x="43" y="11" width="1" height="1" fill="#1A0A2E" />
<rect x="44" y="11" width="1" height="1" fill="#1A0A2E" />
<!-- Row 12-20 Hood body with dark face void -->
<rect x="17" y="12" width="1" height="1" fill="#1A0A2E" />
<rect x="18" y="12" width="1" height="1" fill="#2D1B4E" />
<rect x="19" y="12" width="1" height="1" fill="#3D2B5E" />
<rect x="20" y="12" width="1" height="1" fill="#4D3B6E" />
<rect x="21" y="12" width="1" height="1" fill="#5D4B7E" />
<rect x="22" y="12" width="1" height="1" fill="#6D5B8E" />
<rect x="23" y="12" width="1" height="1" fill="#7D6B9E" />
<rect x="24" y="12" width="1" height="1" fill="#8D7BAE" />
<rect x="25" y="12" width="1" height="1" fill="#9D8BBE" />
<rect x="26" y="12" width="1" height="1" fill="#0A0A0A" />
<rect x="27" y="12" width="1" height="1" fill="#0A0A0A" />
<rect x="28" y="12" width="1" height="1" fill="#0A0A0A" />
<rect x="29" y="12" width="1" height="1" fill="#0A0A0A" />
<rect x="30" y="12" width="1" height="1" fill="#0A0A0A" />
<rect x="31" y="12" width="1" height="1" fill="#0A0A0A" />
<rect x="32" y="12" width="1" height="1" fill="#0A0A0A" />
<rect x="33" y="12" width="1" height="1" fill="#0A0A0A" />
<rect x="34" y="12" width="1" height="1" fill="#0A0A0A" />
<rect x="35" y="12" width="1" height="1" fill="#0A0A0A" />
<rect x="36" y="12" width="1" height="1" fill="#9D8BBE" />
<rect x="37" y="12" width="1" height="1" fill="#8D7BAE" />
<rect x="38" y="12" width="1" height="1" fill="#7D6B9E" />
<rect x="39" y="12" width="1" height="1" fill="#6D5B8E" />
<rect x="40" y="12" width="1" height="1" fill="#5D4B7E" />
<rect x="41" y="12" width="1" height="1" fill="#4D3B6E" />
<rect x="42" y="12" width="1" height="1" fill="#3D2B5E" />
<rect x="43" y="12" width="1" height="1" fill="#2D1B4E" />
<rect x="44" y="12" width="1" height="1" fill="#1A0A2E" />
<rect x="45" y="12" width="1" height="1" fill="#1A0A2E" />
<!-- Rows 13-22 similar pattern with dark face void and glowing eyes -->
<rect x="16" y="13" width="1" height="1" fill="#1A0A2E" />
<rect x="17" y="13" width="1" height="1" fill="#2D1B4E" />
<rect x="18" y="13" width="1" height="1" fill="#3D2B5E" />
<rect x="19" y="13" width="1" height="1" fill="#4D3B6E" />
<rect x="20" y="13" width="1" height="1" fill="#5D4B7E" />
<rect x="21" y="13" width="1" height="1" fill="#6D5B8E" />
<rect x="22" y="13" width="1" height="1" fill="#7D6B9E" />
<rect x="23" y="13" width="1" height="1" fill="#8D7BAE" />
<rect x="24" y="13" width="1" height="1" fill="#0A0A0A" />
<rect x="25" y="13" width="1" height="1" fill="#0A0A0A" />
<rect x="26" y="13" width="1" height="1" fill="#0A0A0A" />
<rect x="27" y="13" width="1" height="1" fill="#0A0A0A" />
<rect x="28" y="13" width="1" height="1" fill="#0A0A0A" />
<rect x="29" y="13" width="1" height="1" fill="#0A0A0A" />
<rect x="30" y="13" width="1" height="1" fill="#0A0A0A" />
<rect x="31" y="13" width="1" height="1" fill="#0A0A0A" />
<rect x="32" y="13" width="1" height="1" fill="#0A0A0A" />
<rect x="33" y="13" width="1" height="1" fill="#0A0A0A" />
<rect x="34" y="13" width="1" height="1" fill="#0A0A0A" />
<rect x="35" y="13" width="1" height="1" fill="#0A0A0A" />
<rect x="36" y="13" width="1" height="1" fill="#0A0A0A" />
<rect x="37" y="13" width="1" height="1" fill="#0A0A0A" />
<rect x="38" y="13" width="1" height="1" fill="#8D7BAE" />
<rect x="39" y="13" width="1" height="1" fill="#7D6B9E" />
<rect x="40" y="13" width="1" height="1" fill="#6D5B8E" />
<rect x="41" y="13" width="1" height="1" fill="#5D4B7E" />
<rect x="42" y="13" width="1" height="1" fill="#4D3B6E" />
<rect x="43" y="13" width="1" height="1" fill="#3D2B5E" />
<rect x="44" y="13" width="1" height="1" fill="#2D1B4E" />
<rect x="45" y="13" width="1" height="1" fill="#1A0A2E" />
<rect x="46" y="13" width="1" height="1" fill="#1A0A2E" />
<!-- Row 14 -->
<rect x="15" y="14" width="1" height="1" fill="#1A0A2E" />
<rect x="16" y="14" width="1" height="1" fill="#2D1B4E" />
<rect x="17" y="14" width="1" height="1" fill="#3D2B5E" />
<rect x="18" y="14" width="1" height="1" fill="#4D3B6E" />
<rect x="19" y="14" width="1" height="1" fill="#5D4B7E" />
<rect x="20" y="14" width="1" height="1" fill="#6D5B8E" />
<rect x="21" y="14" width="1" height="1" fill="#7D6B9E" />
<rect x="22" y="14" width="1" height="1" fill="#0A0A0A" />
<rect x="23" y="14" width="1" height="1" fill="#0A0A0A" />
<rect x="24" y="14" width="1" height="1" fill="#0A0A0A" />
<rect x="25" y="14" width="1" height="1" fill="#0A0A0A" />
<rect x="26" y="14" width="1" height="1" fill="#0A0A0A" />
<rect x="27" y="14" width="1" height="1" fill="#0A0A0A" />
<rect x="28" y="14" width="1" height="1" fill="#0A0A0A" />
<rect x="29" y="14" width="1" height="1" fill="#0A0A0A" />
<rect x="30" y="14" width="1" height="1" fill="#0A0A0A" />
<rect x="31" y="14" width="1" height="1" fill="#0A0A0A" />
<rect x="32" y="14" width="1" height="1" fill="#0A0A0A" />
<rect x="33" y="14" width="1" height="1" fill="#0A0A0A" />
<rect x="34" y="14" width="1" height="1" fill="#0A0A0A" />
<rect x="35" y="14" width="1" height="1" fill="#0A0A0A" />
<rect x="36" y="14" width="1" height="1" fill="#0A0A0A" />
<rect x="37" y="14" width="1" height="1" fill="#0A0A0A" />
<rect x="38" y="14" width="1" height="1" fill="#0A0A0A" />
<rect x="39" y="14" width="1" height="1" fill="#0A0A0A" />
<rect x="40" y="14" width="1" height="1" fill="#7D6B9E" />
<rect x="41" y="14" width="1" height="1" fill="#6D5B8E" />
<rect x="42" y="14" width="1" height="1" fill="#5D4B7E" />
<rect x="43" y="14" width="1" height="1" fill="#4D3B6E" />
<rect x="44" y="14" width="1" height="1" fill="#3D2B5E" />
<rect x="45" y="14" width="1" height="1" fill="#2D1B4E" />
<rect x="46" y="14" width="1" height="1" fill="#1A0A2E" />
<rect x="47" y="14" width="1" height="1" fill="#1A0A2E" />
<!-- Row 15-17 with glowing purple eyes -->
<rect x="14" y="15" width="1" height="1" fill="#1A0A2E" />
<rect x="15" y="15" width="1" height="1" fill="#2D1B4E" />
<rect x="16" y="15" width="1" height="1" fill="#3D2B5E" />
<rect x="17" y="15" width="1" height="1" fill="#4D3B6E" />
<rect x="18" y="15" width="1" height="1" fill="#5D4B7E" />
<rect x="19" y="15" width="1" height="1" fill="#6D5B8E" />
<rect x="20" y="15" width="1" height="1" fill="#0A0A0A" />
<rect x="21" y="15" width="1" height="1" fill="#0A0A0A" />
<rect x="22" y="15" width="1" height="1" fill="#0A0A0A" />
<rect x="23" y="15" width="1" height="1" fill="#0A0A0A" />
<rect x="24" y="15" width="1" height="1" fill="#0A0A0A" />
<rect x="25" y="15" width="1" height="1" fill="#0A0A0A" />
<rect x="26" y="15" width="1" height="1" fill="#0A0A0A" />
<rect x="27" y="15" width="1" height="1" fill="#0A0A0A" />
<rect x="28" y="15" width="1" height="1" fill="#0A0A0A" />
<rect x="29" y="15" width="1" height="1" fill="#0A0A0A" />
<rect x="30" y="15" width="1" height="1" fill="#0A0A0A" />
<rect x="31" y="15" width="1" height="1" fill="#0A0A0A" />
<rect x="32" y="15" width="1" height="1" fill="#0A0A0A" />
<rect x="33" y="15" width="1" height="1" fill="#0A0A0A" />
<rect x="34" y="15" width="1" height="1" fill="#0A0A0A" />
<rect x="35" y="15" width="1" height="1" fill="#0A0A0A" />
<rect x="36" y="15" width="1" height="1" fill="#0A0A0A" />
<rect x="37" y="15" width="1" height="1" fill="#0A0A0A" />
<rect x="38" y="15" width="1" height="1" fill="#0A0A0A" />
<rect x="39" y="15" width="1" height="1" fill="#0A0A0A" />
<rect x="40" y="15" width="1" height="1" fill="#0A0A0A" />
<rect x="41" y="15" width="1" height="1" fill="#0A0A0A" />
<rect x="42" y="15" width="1" height="1" fill="#6D5B8E" />
<rect x="43" y="15" width="1" height="1" fill="#5D4B7E" />
<rect x="44" y="15" width="1" height="1" fill="#4D3B6E" />
<rect x="45" y="15" width="1" height="1" fill="#3D2B5E" />
<rect x="46" y="15" width="1" height="1" fill="#2D1B4E" />
<rect x="47" y="15" width="1" height="1" fill="#1A0A2E" />
<rect x="48" y="15" width="1" height="1" fill="#1A0A2E" />
<!-- Row 16 - Eyes -->
<rect x="13" y="16" width="1" height="1" fill="#1A0A2E" />
<rect x="14" y="16" width="1" height="1" fill="#2D1B4E" />
<rect x="15" y="16" width="1" height="1" fill="#3D2B5E" />
<rect x="16" y="16" width="1" height="1" fill="#4D3B6E" />
<rect x="17" y="16" width="1" height="1" fill="#5D4B7E" />
<rect x="18" y="16" width="1" height="1" fill="#0A0A0A" />
<rect x="19" y="16" width="1" height="1" fill="#0A0A0A" />
<rect x="20" y="16" width="1" height="1" fill="#0A0A0A" />
<rect x="21" y="16" width="1" height="1" fill="#0A0A0A" />
<rect x="22" y="16" width="1" height="1" fill="#0A0A0A" />
<rect x="23" y="16" width="1" height="1" fill="#0A0A0A" />
<rect x="24" y="16" width="1" height="1" fill="#0A0A0A" />
<rect x="25" y="16" width="1" height="1" fill="#9933FF" />
<rect x="26" y="16" width="1" height="1" fill="#CC66FF" />
<rect x="27" y="16" width="1" height="1" fill="#9933FF" />
<rect x="28" y="16" width="1" height="1" fill="#0A0A0A" />
<rect x="29" y="16" width="1" height="1" fill="#0A0A0A" />
<rect x="30" y="16" width="1" height="1" fill="#0A0A0A" />
<rect x="31" y="16" width="1" height="1" fill="#0A0A0A" />
<rect x="32" y="16" width="1" height="1" fill="#0A0A0A" />
<rect x="33" y="16" width="1" height="1" fill="#0A0A0A" />
<rect x="34" y="16" width="1" height="1" fill="#9933FF" />
<rect x="35" y="16" width="1" height="1" fill="#CC66FF" />
<rect x="36" y="16" width="1" height="1" fill="#9933FF" />
<rect x="37" y="16" width="1" height="1" fill="#0A0A0A" />
<rect x="38" y="16" width="1" height="1" fill="#0A0A0A" />
<rect x="39" y="16" width="1" height="1" fill="#0A0A0A" />
<rect x="40" y="16" width="1" height="1" fill="#0A0A0A" />
<rect x="41" y="16" width="1" height="1" fill="#0A0A0A" />
<rect x="42" y="16" width="1" height="1" fill="#0A0A0A" />
<rect x="43" y="16" width="1" height="1" fill="#0A0A0A" />
<rect x="44" y="16" width="1" height="1" fill="#5D4B7E" />
<rect x="45" y="16" width="1" height="1" fill="#4D3B6E" />
<rect x="46" y="16" width="1" height="1" fill="#3D2B5E" />
<rect x="47" y="16" width="1" height="1" fill="#2D1B4E" />
<rect x="48" y="16" width="1" height="1" fill="#1A0A2E" />
<rect x="49" y="16" width="1" height="1" fill="#1A0A2E" />
<!-- Row 17 - Eyes glow -->
<rect x="12" y="17" width="1" height="1" fill="#1A0A2E" />
<rect x="13" y="17" width="1" height="1" fill="#2D1B4E" />
<rect x="14" y="17" width="1" height="1" fill="#3D2B5E" />
<rect x="15" y="17" width="1" height="1" fill="#4D3B6E" />
<rect x="16" y="17" width="1" height="1" fill="#5D4B7E" />
<rect x="17" y="17" width="1" height="1" fill="#0A0A0A" />
<rect x="18" y="17" width="1" height="1" fill="#0A0A0A" />
<rect x="19" y="17" width="1" height="1" fill="#0A0A0A" />
<rect x="20" y="17" width="1" height="1" fill="#0A0A0A" />
<rect x="21" y="17" width="1" height="1" fill="#0A0A0A" />
<rect x="22" y="17" width="1" height="1" fill="#0A0A0A" />
<rect x="23" y="17" width="1" height="1" fill="#0A0A0A" />
<rect x="24" y="17" width="1" height="1" fill="#6600CC" />
<rect x="25" y="17" width="1" height="1" fill="#CC66FF" />
<rect x="26" y="17" width="1" height="1" fill="#FFFFFF" />
<rect x="27" y="17" width="1" height="1" fill="#CC66FF" />
<rect x="28" y="17" width="1" height="1" fill="#6600CC" />
<rect x="29" y="17" width="1" height="1" fill="#0A0A0A" />
<rect x="30" y="17" width="1" height="1" fill="#0A0A0A" />
<rect x="31" y="17" width="1" height="1" fill="#0A0A0A" />
<rect x="32" y="17" width="1" height="1" fill="#0A0A0A" />
<rect x="33" y="17" width="1" height="1" fill="#6600CC" />
<rect x="34" y="17" width="1" height="1" fill="#CC66FF" />
<rect x="35" y="17" width="1" height="1" fill="#FFFFFF" />
<rect x="36" y="17" width="1" height="1" fill="#CC66FF" />
<rect x="37" y="17" width="1" height="1" fill="#6600CC" />
<rect x="38" y="17" width="1" height="1" fill="#0A0A0A" />
<rect x="39" y="17" width="1" height="1" fill="#0A0A0A" />
<rect x="40" y="17" width="1" height="1" fill="#0A0A0A" />
<rect x="41" y="17" width="1" height="1" fill="#0A0A0A" />
<rect x="42" y="17" width="1" height="1" fill="#0A0A0A" />
<rect x="43" y="17" width="1" height="1" fill="#0A0A0A" />
<rect x="44" y="17" width="1" height="1" fill="#0A0A0A" />
<rect x="45" y="17" width="1" height="1" fill="#5D4B7E" />
<rect x="46" y="17" width="1" height="1" fill="#4D3B6E" />
<rect x="47" y="17" width="1" height="1" fill="#3D2B5E" />
<rect x="48" y="17" width="1" height="1" fill="#2D1B4E" />
<rect x="49" y="17" width="1" height="1" fill="#1A0A2E" />
<rect x="50" y="17" width="1" height="1" fill="#1A0A2E" />
<!-- Rows 18-25 Lower face and body -->
<rect x="12" y="18" width="1" height="1" fill="#1A0A2E" />
<rect x="13" y="18" width="1" height="1" fill="#2D1B4E" />
<rect x="14" y="18" width="1" height="1" fill="#3D2B5E" />
<rect x="15" y="18" width="1" height="1" fill="#4D3B6E" />
<rect x="16" y="18" width="1" height="1" fill="#5D4B7E" />
<rect x="17" y="18" width="1" height="1" fill="#0A0A0A" />
<rect x="18" y="18" width="1" height="1" fill="#0A0A0A" />
<rect x="19" y="18" width="1" height="1" fill="#0A0A0A" />
<rect x="20" y="18" width="1" height="1" fill="#0A0A0A" />
<rect x="21" y="18" width="1" height="1" fill="#0A0A0A" />
<rect x="22" y="18" width="1" height="1" fill="#0A0A0A" />
<rect x="23" y="18" width="1" height="1" fill="#0A0A0A" />
<rect x="24" y="18" width="1" height="1" fill="#0A0A0A" />
<rect x="25" y="18" width="1" height="1" fill="#9933FF" />
<rect x="26" y="18" width="1" height="1" fill="#CC66FF" />
<rect x="27" y="18" width="1" height="1" fill="#9933FF" />
<rect x="28" y="18" width="1" height="1" fill="#0A0A0A" />
<rect x="29" y="18" width="1" height="1" fill="#0A0A0A" />
<rect x="30" y="18" width="1" height="1" fill="#0A0A0A" />
<rect x="31" y="18" width="1" height="1" fill="#0A0A0A" />
<rect x="32" y="18" width="1" height="1" fill="#0A0A0A" />
<rect x="33" y="18" width="1" height="1" fill="#0A0A0A" />
<rect x="34" y="18" width="1" height="1" fill="#9933FF" />
<rect x="35" y="18" width="1" height="1" fill="#CC66FF" />
<rect x="36" y="18" width="1" height="1" fill="#9933FF" />
<rect x="37" y="18" width="1" height="1" fill="#0A0A0A" />
<rect x="38" y="18" width="1" height="1" fill="#0A0A0A" />
<rect x="39" y="18" width="1" height="1" fill="#0A0A0A" />
<rect x="40" y="18" width="1" height="1" fill="#0A0A0A" />
<rect x="41" y="18" width="1" height="1" fill="#0A0A0A" />
<rect x="42" y="18" width="1" height="1" fill="#0A0A0A" />
<rect x="43" y="18" width="1" height="1" fill="#0A0A0A" />
<rect x="44" y="18" width="1" height="1" fill="#0A0A0A" />
<rect x="45" y="18" width="1" height="1" fill="#5D4B7E" />
<rect x="46" y="18" width="1" height="1" fill="#4D3B6E" />
<rect x="47" y="18" width="1" height="1" fill="#3D2B5E" />
<rect x="48" y="18" width="1" height="1" fill="#2D1B4E" />
<rect x="49" y="18" width="1" height="1" fill="#1A0A2E" />
<rect x="50" y="18" width="1" height="1" fill="#1A0A2E" />
<!-- Rows 19-30 Body continuing down -->
<rect x="12" y="19" width="1" height="1" fill="#1A0A2E" />
<rect x="13" y="19" width="1" height="1" fill="#2D1B4E" />
<rect x="14" y="19" width="1" height="1" fill="#3D2B5E" />
<rect x="15" y="19" width="1" height="1" fill="#4D3B6E" />
<rect x="16" y="19" width="1" height="1" fill="#5D4B7E" />
<rect x="17" y="19" width="1" height="1" fill="#0A0A0A" />
<rect x="18" y="19" width="1" height="1" fill="#0A0A0A" />
<rect x="19" y="19" width="1" height="1" fill="#0A0A0A" />
<rect x="20" y="19" width="1" height="1" fill="#0A0A0A" />
<rect x="21" y="19" width="1" height="1" fill="#0A0A0A" />
<rect x="22" y="19" width="1" height="1" fill="#0A0A0A" />
<rect x="23" y="19" width="1" height="1" fill="#0A0A0A" />
<rect x="24" y="19" width="1" height="1" fill="#0A0A0A" />
<rect x="25" y="19" width="1" height="1" fill="#0A0A0A" />
<rect x="26" y="19" width="1" height="1" fill="#0A0A0A" />
<rect x="27" y="19" width="1" height="1" fill="#0A0A0A" />
<rect x="28" y="19" width="1" height="1" fill="#0A0A0A" />
<rect x="29" y="19" width="1" height="1" fill="#0A0A0A" />
<rect x="30" y="19" width="1" height="1" fill="#0A0A0A" />
<rect x="31" y="19" width="1" height="1" fill="#0A0A0A" />
<rect x="32" y="19" width="1" height="1" fill="#0A0A0A" />
<rect x="33" y="19" width="1" height="1" fill="#0A0A0A" />
<rect x="34" y="19" width="1" height="1" fill="#0A0A0A" />
<rect x="35" y="19" width="1" height="1" fill="#0A0A0A" />
<rect x="36" y="19" width="1" height="1" fill="#0A0A0A" />
<rect x="37" y="19" width="1" height="1" fill="#0A0A0A" />
<rect x="38" y="19" width="1" height="1" fill="#0A0A0A" />
<rect x="39" y="19" width="1" height="1" fill="#0A0A0A" />
<rect x="40" y="19" width="1" height="1" fill="#0A0A0A" />
<rect x="41" y="19" width="1" height="1" fill="#0A0A0A" />
<rect x="42" y="19" width="1" height="1" fill="#0A0A0A" />
<rect x="43" y="19" width="1" height="1" fill="#0A0A0A" />
<rect x="44" y="19" width="1" height="1" fill="#0A0A0A" />
<rect x="45" y="19" width="1" height="1" fill="#5D4B7E" />
<rect x="46" y="19" width="1" height="1" fill="#4D3B6E" />
<rect x="47" y="19" width="1" height="1" fill="#3D2B5E" />
<rect x="48" y="19" width="1" height="1" fill="#2D1B4E" />
<rect x="49" y="19" width="1" height="1" fill="#1A0A2E" />
<rect x="50" y="19" width="1" height="1" fill="#1A0A2E" />
<!-- Rows 20-55 Cloak body -->
<rect x="12" y="20" width="1" height="1" fill="#1A0A2E" />
<rect x="13" y="20" width="1" height="1" fill="#2D1B4E" />
<rect x="14" y="20" width="1" height="1" fill="#3D2B5E" />
<rect x="15" y="20" width="1" height="1" fill="#4D3B6E" />
<rect x="16" y="20" width="1" height="1" fill="#5D4B7E" />
<rect x="17" y="20" width="1" height="1" fill="#6D5B8E" />
<rect x="18" y="20" width="1" height="1" fill="#0A0A0A" />
<rect x="19" y="20" width="1" height="1" fill="#0A0A0A" />
<rect x="20" y="20" width="1" height="1" fill="#0A0A0A" />
<rect x="21" y="20" width="1" height="1" fill="#0A0A0A" />
<rect x="22" y="20" width="1" height="1" fill="#0A0A0A" />
<rect x="23" y="20" width="1" height="1" fill="#0A0A0A" />
<rect x="24" y="20" width="1" height="1" fill="#0A0A0A" />
<rect x="25" y="20" width="1" height="1" fill="#0A0A0A" />
<rect x="26" y="20" width="1" height="1" fill="#0A0A0A" />
<rect x="27" y="20" width="1" height="1" fill="#0A0A0A" />
<rect x="28" y="20" width="1" height="1" fill="#0A0A0A" />
<rect x="29" y="20" width="1" height="1" fill="#0A0A0A" />
<rect x="30" y="20" width="1" height="1" fill="#0A0A0A" />
<rect x="31" y="20" width="1" height="1" fill="#0A0A0A" />
<rect x="32" y="20" width="1" height="1" fill="#0A0A0A" />
<rect x="33" y="20" width="1" height="1" fill="#0A0A0A" />
<rect x="34" y="20" width="1" height="1" fill="#0A0A0A" />
<rect x="35" y="20" width="1" height="1" fill="#0A0A0A" />
<rect x="36" y="20" width="1" height="1" fill="#0A0A0A" />
<rect x="37" y="20" width="1" height="1" fill="#0A0A0A" />
<rect x="38" y="20" width="1" height="1" fill="#0A0A0A" />
<rect x="39" y="20" width="1" height="1" fill="#0A0A0A" />
<rect x="40" y="20" width="1" height="1" fill="#0A0A0A" />
<rect x="41" y="20" width="1" height="1" fill="#0A0A0A" />
<rect x="42" y="20" width="1" height="1" fill="#0A0A0A" />
<rect x="43" y="20" width="1" height="1" fill="#0A0A0A" />
<rect x="44" y="20" width="1" height="1" fill="#6D5B8E" />
<rect x="45" y="20" width="1" height="1" fill="#5D4B7E" />
<rect x="46" y="20" width="1" height="1" fill="#4D3B6E" />
<rect x="47" y="20" width="1" height="1" fill="#3D2B5E" />
<rect x="48" y="20" width="1" height="1" fill="#2D1B4E" />
<rect x="49" y="20" width="1" height="1" fill="#1A0A2E" />
<rect x="50" y="20" width="1" height="1" fill="#1A0A2E" />
<!-- Simplified body rows 21-55 -->
<rect x="11" y="21" width="1" height="1" fill="#1A0A2E" />
<rect x="12" y="21" width="1" height="1" fill="#2D1B4E" />
<rect x="13" y="21" width="1" height="1" fill="#3D2B5E" />
<rect x="14" y="21" width="1" height="1" fill="#4D3B6E" />
<rect x="15" y="21" width="1" height="1" fill="#5D4B7E" />
<rect x="16" y="21" width="1" height="1" fill="#6D5B8E" />
<rect x="17" y="21" width="1" height="1" fill="#7D6B9E" />
<rect x="18" y="21" width="1" height="1" fill="#8D7BAE" />
<rect x="19" y="21" width="1" height="1" fill="#2D1B4E" />
<rect x="20" y="21" width="1" height="1" fill="#2D1B4E" />
<rect x="21" y="21" width="1" height="1" fill="#2D1B4E" />
<rect x="22" y="21" width="1" height="1" fill="#2D1B4E" />
<rect x="23" y="21" width="1" height="1" fill="#2D1B4E" />
<rect x="24" y="21" width="1" height="1" fill="#2D1B4E" />
<rect x="25" y="21" width="1" height="1" fill="#2D1B4E" />
<rect x="26" y="21" width="1" height="1" fill="#2D1B4E" />
<rect x="27" y="21" width="1" height="1" fill="#2D1B4E" />
<rect x="28" y="21" width="1" height="1" fill="#2D1B4E" />
<rect x="29" y="21" width="1" height="1" fill="#2D1B4E" />
<rect x="30" y="21" width="1" height="1" fill="#2D1B4E" />
<rect x="31" y="21" width="1" height="1" fill="#2D1B4E" />
<rect x="32" y="21" width="1" height="1" fill="#2D1B4E" />
<rect x="33" y="21" width="1" height="1" fill="#2D1B4E" />
<rect x="34" y="21" width="1" height="1" fill="#2D1B4E" />
<rect x="35" y="21" width="1" height="1" fill="#2D1B4E" />
<rect x="36" y="21" width="1" height="1" fill="#2D1B4E" />
<rect x="37" y="21" width="1" height="1" fill="#2D1B4E" />
<rect x="38" y="21" width="1" height="1" fill="#2D1B4E" />
<rect x="39" y="21" width="1" height="1" fill="#2D1B4E" />
<rect x="40" y="21" width="1" height="1" fill="#2D1B4E" />
<rect x="41" y="21" width="1" height="1" fill="#2D1B4E" />
<rect x="42" y="21" width="1" height="1" fill="#2D1B4E" />
<rect x="43" y="21" width="1" height="1" fill="#8D7BAE" />
<rect x="44" y="21" width="1" height="1" fill="#7D6B9E" />
<rect x="45" y="21" width="1" height="1" fill="#6D5B8E" />
<rect x="46" y="21" width="1" height="1" fill="#5D4B7E" />
<rect x="47" y="21" width="1" height="1" fill="#4D3B6E" />
<rect x="48" y="21" width="1" height="1" fill="#3D2B5E" />
<rect x="49" y="21" width="1" height="1" fill="#2D1B4E" />
<rect x="50" y="21" width="1" height="1" fill="#1A0A2E" />
<rect x="51" y="21" width="1" height="1" fill="#1A0A2E" />
<!-- Bottom rows - cloak fading -->
<rect x="10" y="22" width="1" height="1" fill="#1A0A2E" />
<rect x="11" y="22" width="1" height="1" fill="#2D1B4E" />
<rect x="12" y="22" width="1" height="1" fill="#3D2B5E" />
<rect x="13" y="22" width="1" height="1" fill="#4D3B6E" />
<rect x="14" y="22" width="1" height="1" fill="#5D4B7E" />
<rect x="15" y="22" width="1" height="1" fill="#6D5B8E" />
<rect x="16" y="22" width="1" height="1" fill="#7D6B9E" />
<rect x="17" y="22" width="1" height="1" fill="#8D7BAE" />
<rect x="18" y="22" width="1" height="1" fill="#3D2B5E" />
<rect x="19" y="22" width="1" height="1" fill="#3D2B5E" />
<rect x="20" y="22" width="1" height="1" fill="#3D2B5E" />
<rect x="21" y="22" width="1" height="1" fill="#3D2B5E" />
<rect x="22" y="22" width="1" height="1" fill="#3D2B5E" />
<rect x="23" y="22" width="1" height="1" fill="#3D2B5E" />
<rect x="24" y="22" width="1" height="1" fill="#3D2B5E" />
<rect x="25" y="22" width="1" height="1" fill="#3D2B5E" />
<rect x="26" y="22" width="1" height="1" fill="#3D2B5E" />
<rect x="27" y="22" width="1" height="1" fill="#3D2B5E" />
<rect x="28" y="22" width="1" height="1" fill="#3D2B5E" />
<rect x="29" y="22" width="1" height="1" fill="#3D2B5E" />
<rect x="30" y="22" width="1" height="1" fill="#3D2B5E" />
<rect x="31" y="22" width="1" height="1" fill="#3D2B5E" />
<rect x="32" y="22" width="1" height="1" fill="#3D2B5E" />
<rect x="33" y="22" width="1" height="1" fill="#3D2B5E" />
<rect x="34" y="22" width="1" height="1" fill="#3D2B5E" />
<rect x="35" y="22" width="1" height="1" fill="#3D2B5E" />
<rect x="36" y="22" width="1" height="1" fill="#3D2B5E" />
<rect x="37" y="22" width="1" height="1" fill="#3D2B5E" />
<rect x="38" y="22" width="1" height="1" fill="#3D2B5E" />
<rect x="39" y="22" width="1" height="1" fill="#3D2B5E" />
<rect x="40" y="22" width="1" height="1" fill="#3D2B5E" />
<rect x="41" y="22" width="1" height="1" fill="#3D2B5E" />
<rect x="42" y="22" width="1" height="1" fill="#3D2B5E" />
<rect x="43" y="22" width="1" height="1" fill="#3D2B5E" />
<rect x="44" y="22" width="1" height="1" fill="#8D7BAE" />
<rect x="45" y="22" width="1" height="1" fill="#7D6B9E" />
<rect x="46" y="22" width="1" height="1" fill="#6D5B8E" />
<rect x="47" y="22" width="1" height="1" fill="#5D4B7E" />
<rect x="48" y="22" width="1" height="1" fill="#4D3B6E" />
<rect x="49" y="22" width="1" height="1" fill="#3D2B5E" />
<rect x="50" y="22" width="1" height="1" fill="#2D1B4E" />
<rect x="51" y="22" width="1" height="1" fill="#1A0A2E" />
<rect x="52" y="22" width="1" height="1" fill="#1A0A2E" />
<!-- More cloak body rows 23-55 -->
<rect x="9" y="23" width="1" height="1" fill="#1A0A2E" />
<rect x="10" y="23" width="1" height="1" fill="#2D1B4E" />
<rect x="11" y="23" width="1" height="1" fill="#3D2B5E" />
<rect x="12" y="23" width="1" height="1" fill="#4D3B6E" />
<rect x="13" y="23" width="1" height="1" fill="#5D4B7E" />
<rect x="14" y="23" width="1" height="1" fill="#6D5B8E" />
<rect x="15" y="23" width="1" height="1" fill="#7D6B9E" />
<rect x="16" y="23" width="1" height="1" fill="#8D7BAE" />
<rect x="17" y="23" width="1" height="1" fill="#4D3B6E" />
<rect x="18" y="23" width="1" height="1" fill="#4D3B6E" />
<rect x="19" y="23" width="1" height="1" fill="#4D3B6E" />
<rect x="20" y="23" width="1" height="1" fill="#4D3B6E" />
<rect x="21" y="23" width="1" height="1" fill="#4D3B6E" />
<rect x="22" y="23" width="1" height="1" fill="#4D3B6E" />
<rect x="23" y="23" width="1" height="1" fill="#4D3B6E" />
<rect x="24" y="23" width="1" height="1" fill="#4D3B6E" />
<rect x="25" y="23" width="1" height="1" fill="#4D3B6E" />
<rect x="26" y="23" width="1" height="1" fill="#4D3B6E" />
<rect x="27" y="23" width="1" height="1" fill="#4D3B6E" />
<rect x="28" y="23" width="1" height="1" fill="#4D3B6E" />
<rect x="29" y="23" width="1" height="1" fill="#4D3B6E" />
<rect x="30" y="23" width="1" height="1" fill="#4D3B6E" />
<rect x="31" y="23" width="1" height="1" fill="#4D3B6E" />
<rect x="32" y="23" width="1" height="1" fill="#4D3B6E" />
<rect x="33" y="23" width="1" height="1" fill="#4D3B6E" />
<rect x="34" y="23" width="1" height="1" fill="#4D3B6E" />
<rect x="35" y="23" width="1" height="1" fill="#4D3B6E" />
<rect x="36" y="23" width="1" height="1" fill="#4D3B6E" />
<rect x="37" y="23" width="1" height="1" fill="#4D3B6E" />
<rect x="38" y="23" width="1" height="1" fill="#4D3B6E" />
<rect x="39" y="23" width="1" height="1" fill="#4D3B6E" />
<rect x="40" y="23" width="1" height="1" fill="#4D3B6E" />
<rect x="41" y="23" width="1" height="1" fill="#4D3B6E" />
<rect x="42" y="23" width="1" height="1" fill="#4D3B6E" />
<rect x="43" y="23" width="1" height="1" fill="#4D3B6E" />
<rect x="44" y="23" width="1" height="1" fill="#4D3B6E" />
<rect x="45" y="23" width="1" height="1" fill="#8D7BAE" />
<rect x="46" y="23" width="1" height="1" fill="#7D6B9E" />
<rect x="47" y="23" width="1" height="1" fill="#6D5B8E" />
<rect x="48" y="23" width="1" height="1" fill="#5D4B7E" />
<rect x="49" y="23" width="1" height="1" fill="#4D3B6E" />
<rect x="50" y="23" width="1" height="1" fill="#3D2B5E" />
<rect x="51" y="23" width="1" height="1" fill="#2D1B4E" />
<rect x="52" y="23" width="1" height="1" fill="#1A0A2E" />
<rect x="53" y="23" width="1" height="1" fill="#1A0A2E" />
<!-- Bottom wisps/fade effect rows 24-30 -->
<rect x="8" y="24" width="1" height="1" fill="#1A0A2E" />
<rect x="9" y="24" width="1" height="1" fill="#2D1B4E" />
<rect x="10" y="24" width="1" height="1" fill="#3D2B5E" />
<rect x="11" y="24" width="1" height="1" fill="#4D3B6E" />
<rect x="12" y="24" width="1" height="1" fill="#5D4B7E" />
<rect x="13" y="24" width="1" height="1" fill="#6D5B8E" />
<rect x="14" y="24" width="1" height="1" fill="#7D6B9E" />
<rect x="15" y="24" width="1" height="1" fill="#5D4B7E" />
<rect x="16" y="24" width="1" height="1" fill="#5D4B7E" />
<rect x="17" y="24" width="1" height="1" fill="#5D4B7E" />
<rect x="18" y="24" width="1" height="1" fill="#5D4B7E" />
<rect x="19" y="24" width="1" height="1" fill="#5D4B7E" />
<rect x="20" y="24" width="1" height="1" fill="#5D4B7E" />
<rect x="21" y="24" width="1" height="1" fill="#5D4B7E" />
<rect x="22" y="24" width="1" height="1" fill="#5D4B7E" />
<rect x="23" y="24" width="1" height="1" fill="#5D4B7E" />
<rect x="24" y="24" width="1" height="1" fill="#5D4B7E" />
<rect x="25" y="24" width="1" height="1" fill="#5D4B7E" />
<rect x="26" y="24" width="1" height="1" fill="#5D4B7E" />
<rect x="27" y="24" width="1" height="1" fill="#5D4B7E" />
<rect x="28" y="24" width="1" height="1" fill="#5D4B7E" />
<rect x="29" y="24" width="1" height="1" fill="#5D4B7E" />
<rect x="30" y="24" width="1" height="1" fill="#5D4B7E" />
<rect x="31" y="24" width="1" height="1" fill="#5D4B7E" />
<rect x="32" y="24" width="1" height="1" fill="#5D4B7E" />
<rect x="33" y="24" width="1" height="1" fill="#5D4B7E" />
<rect x="34" y="24" width="1" height="1" fill="#5D4B7E" />
<rect x="35" y="24" width="1" height="1" fill="#5D4B7E" />
<rect x="36" y="24" width="1" height="1" fill="#5D4B7E" />
<rect x="37" y="24" width="1" height="1" fill="#5D4B7E" />
<rect x="38" y="24" width="1" height="1" fill="#5D4B7E" />
<rect x="39" y="24" width="1" height="1" fill="#5D4B7E" />
<rect x="40" y="24" width="1" height="1" fill="#5D4B7E" />
<rect x="41" y="24" width="1" height="1" fill="#5D4B7E" />
<rect x="42" y="24" width="1" height="1" fill="#5D4B7E" />
<rect x="43" y="24" width="1" height="1" fill="#5D4B7E" />
<rect x="44" y="24" width="1" height="1" fill="#5D4B7E" />
<rect x="45" y="24" width="1" height="1" fill="#5D4B7E" />
<rect x="46" y="24" width="1" height="1" fill="#5D4B7E" />
<rect x="47" y="24" width="1" height="1" fill="#7D6B9E" />
<rect x="48" y="24" width="1" height="1" fill="#6D5B8E" />
<rect x="49" y="24" width="1" height="1" fill="#5D4B7E" />
<rect x="50" y="24" width="1" height="1" fill="#4D3B6E" />
<rect x="51" y="24" width="1" height="1" fill="#3D2B5E" />
<rect x="52" y="24" width="1" height="1" fill="#2D1B4E" />
<rect x="53" y="24" width="1" height="1" fill="#1A0A2E" />
<rect x="54" y="24" width="1" height="1" fill="#1A0A2E" />
<!-- Wispy bottom edge -->
<rect x="7" y="25" width="1" height="1" fill="#1A0A2E" />
<rect x="8" y="25" width="1" height="1" fill="#2D1B4E" />
<rect x="9" y="25" width="1" height="1" fill="#3D2B5E" />
<rect x="10" y="25" width="1" height="1" fill="#4D3B6E" />
<rect x="11" y="25" width="1" height="1" fill="#5D4B7E" />
<rect x="12" y="25" width="1" height="1" fill="#5D4B7E" />
<rect x="13" y="25" width="1" height="1" fill="#5D4B7E" />
<rect x="14" y="25" width="1" height="1" fill="#5D4B7E" />
<rect x="48" y="25" width="1" height="1" fill="#5D4B7E" />
<rect x="49" y="25" width="1" height="1" fill="#5D4B7E" />
<rect x="50" y="25" width="1" height="1" fill="#5D4B7E" />
<rect x="51" y="25" width="1" height="1" fill="#5D4B7E" />
<rect x="52" y="25" width="1" height="1" fill="#4D3B6E" />
<rect x="53" y="25" width="1" height="1" fill="#3D2B5E" />
<rect x="54" y="25" width="1" height="1" fill="#2D1B4E" />
<rect x="55" y="25" width="1" height="1" fill="#1A0A2E" />
<rect x="6" y="26" width="1" height="1" fill="#1A0A2E" />
<rect x="7" y="26" width="1" height="1" fill="#2D1B4E" />
<rect x="8" y="26" width="1" height="1" fill="#3D2B5E" />
<rect x="9" y="26" width="1" height="1" fill="#4D3B6E" />
<rect x="10" y="26" width="1" height="1" fill="#4D3B6E" />
<rect x="11" y="26" width="1" height="1" fill="#4D3B6E" />
<rect x="51" y="26" width="1" height="1" fill="#4D3B6E" />
<rect x="52" y="26" width="1" height="1" fill="#4D3B6E" />
<rect x="53" y="26" width="1" height="1" fill="#4D3B6E" />
<rect x="54" y="26" width="1" height="1" fill="#3D2B5E" />
<rect x="55" y="26" width="1" height="1" fill="#2D1B4E" />
<rect x="56" y="26" width="1" height="1" fill="#1A0A2E" />
<rect x="5" y="27" width="1" height="1" fill="#1A0A2E" />
<rect x="6" y="27" width="1" height="1" fill="#2D1B4E" />
<rect x="7" y="27" width="1" height="1" fill="#3D2B5E" />
<rect x="8" y="27" width="1" height="1" fill="#3D2B5E" />
<rect x="54" y="27" width="1" height="1" fill="#3D2B5E" />
<rect x="55" y="27" width="1" height="1" fill="#3D2B5E" />
<rect x="56" y="27" width="1" height="1" fill="#2D1B4E" />
<rect x="57" y="27" width="1" height="1" fill="#1A0A2E" />
<rect x="4" y="28" width="1" height="1" fill="#1A0A2E" />
<rect x="5" y="28" width="1" height="1" fill="#2D1B4E" />
<rect x="6" y="28" width="1" height="1" fill="#2D1B4E" />
<rect x="56" y="28" width="1" height="1" fill="#2D1B4E" />
<rect x="57" y="28" width="1" height="1" fill="#2D1B4E" />
<rect x="58" y="28" width="1" height="1" fill="#1A0A2E" />
<rect x="4" y="29" width="1" height="1" fill="#1A0A2E" />
<rect x="5" y="29" width="1" height="1" fill="#1A0A2E" />
<rect x="57" y="29" width="1" height="1" fill="#1A0A2E" />
<rect x="58" y="29" width="1" height="1" fill="#1A0A2E" />
</svg>
