<svg xmlns="http://www.w3.org/2000/svg" viewBox="0 0 64 64" shape-rendering="crispEdges">
  <!-- SWE Class Icon: Super Saiyan Swedish person -->

  <!-- Golden Super Saiyan hair - spiky and dramatic -->
  <!-- Main spikes pointing up and outward -->
  <rect x="20" y="4" width="2" height="2" fill="#FFD700"/>
  <rect x="18" y="6" width="4" height="2" fill="#FFC700"/>
  <rect x="16" y="8" width="6" height="2" fill="#FFD700"/>

  <rect x="28" y="2" width="2" height="3" fill="#FFD700"/>
  <rect x="26" y="5" width="4" height="2" fill="#FFC700"/>
  <rect x="30" y="3" width="2" height="3" fill="#FFE44D"/>

  <rect x="34" y="2" width="2" height="2" fill="#FFD700"/>
  <rect x="32" y="4" width="4" height="2" fill="#FFC700"/>
  <rect x="36" y="3" width="2" height="3" fill="#FFE44D"/>

  <rect x="42" y="4" width="2" height="2" fill="#FFD700"/>
  <rect x="40" y="6" width="6" height="2" fill="#FFC700"/>
  <rect x="44" y="5" width="2" height="3" fill="#FFE44D"/>

  <!-- Hair base/volume -->
  <rect x="14" y="10" width="36" height="2" fill="#FFD700"/>
  <rect x="12" y="12" width="40" height="3" fill="#FFC700"/>
  <rect x="10" y="15" width="44" height="3" fill="#FFD700"/>
  <rect x="12" y="18" width="40" height="2" fill="#FFC700"/>

  <!-- More dramatic spikes at sides -->
  <rect x="8" y="12" width="4" height="2" fill="#FFD700"/>
  <rect x="6" y="14" width="4" height="3" fill="#FFC700"/>
  <rect x="4" y="17" width="6" height="2" fill="#FFD700"/>

  <rect x="52" y="12" width="4" height="2" fill="#FFD700"/>
  <rect x="54" y="14" width="4" height="3" fill="#FFC700"/>
  <rect x="54" y="17" width="6" height="2" fill="#FFD700"/>

  <!-- Hair highlights -->
  <rect x="24" y="12" width="4" height="1" fill="#FFFF99"/>
  <rect x="36" y="13" width="4" height="1" fill="#FFFF99"/>
  <rect x="28" y="5" width="1" height="2" fill="#FFFFC0"/>
  <rect x="34" y="3" width="1" height="2" fill="#FFFFC0"/>

  <!-- Face -->
  <rect x="18" y="20" width="28" height="18" fill="#FFE4C4"/>
  <rect x="16" y="22" width="2" height="14" fill="#FFE4C4"/>
  <rect x="46" y="22" width="2" height="14" fill="#FFE4C4"/>
  <rect x="20" y="38" width="24" height="4" fill="#FFE4C4"/>

  <!-- Face shading -->
  <rect x="18" y="34" width="2" height="4" fill="#EECFA1"/>
  <rect x="44" y="34" width="2" height="4" fill="#EECFA1"/>
  <rect x="22" y="40" width="20" height="2" fill="#EECFA1"/>

  <!-- Super Saiyan eyes - intense teal/green -->
  <rect x="22" y="26" width="6" height="4" fill="#FFFFFF"/>
  <rect x="36" y="26" width="6" height="4" fill="#FFFFFF"/>
  <!-- Teal irises -->
  <rect x="24" y="27" width="3" height="3" fill="#00CED1"/>
  <rect x="38" y="27" width="3" height="3" fill="#00CED1"/>
  <!-- Pupils -->
  <rect x="25" y="28" width="2" height="2" fill="#006666"/>
  <rect x="39" y="28" width="2" height="2" fill="#006666"/>
  <!-- Eye shine -->
  <rect x="25" y="27" width="1" height="1" fill="#FFFFFF"/>
  <rect x="39" y="27" width="1" height="1" fill="#FFFFFF"/>

  <!-- Angry eyebrows -->
  <rect x="22" y="24" width="6" height="2" fill="#DAA520"/>
  <rect x="20" y="25" width="2" height="1" fill="#DAA520"/>
  <rect x="36" y="24" width="6" height="2" fill="#DAA520"/>
  <rect x="42" y="25" width="2" height="1" fill="#DAA520"/>

  <!-- Nose -->
  <rect x="31" y="30" width="2" height="4" fill="#EECFA1"/>

  <!-- Determined mouth -->
  <rect x="28" y="36" width="8" height="1" fill="#CC6666"/>
  <rect x="27" y="35" width="1" height="1" fill="#CC6666"/>
  <rect x="36" y="35" width="1" height="1" fill="#CC6666"/>

  <!-- Swedish flag on chest -->
  <rect x="20" y="44" width="24" height="16" fill="#006AA7"/>
  <!-- Yellow cross -->
  <rect x="28" y="44" width="4" height="16" fill="#FECC02"/>
  <rect x="20" y="50" width="24" height="4" fill="#FECC02"/>

  <!-- Super Saiyan aura effect -->
  <rect x="6" y="24" width="2" height="1" fill="#FFD700" opacity="0.8"/>
  <rect x="4" y="28" width="2" height="1" fill="#FFD700" opacity="0.8"/>
  <rect x="5" y="32" width="2" height="1" fill="#FFD700" opacity="0.8"/>

  <rect x="56" y="24" width="2" height="1" fill="#FFD700" opacity="0.8"/>
  <rect x="58" y="28" width="2" height="1" fill="#FFD700" opacity="0.8"/>
  <rect x="57" y="32" width="2" height="1" fill="#FFD700" opacity="0.8"/>

  <!-- Energy sparks -->
  <rect x="10" y="20" width="1" height="1" fill="#FFFFFF"/>
  <rect x="8" y="26" width="1" height="1" fill="#FFFF99"/>
  <rect x="53" y="20" width="1" height="1" fill="#FFFFFF"/>
  <rect x="55" y="26" width="1" height="1" fill="#FFFF99"/>
  <rect x="32" y="6" width="1" height="1" fill="#FFFFFF"/>
</svg>