<?xml version="1.0" encoding="UTF-8" ?>
<svg version="1.1" width="64" height="64" xmlns="http://www.w3.org/2000/svg" shape-rendering="crispEdges">
<rect x="2" y="12" width="1" height="1" fill="#050403" />
<rect x="3" y="12" width="1" height="1" fill="#050403" />
<rect x="60" y="12" width="1" height="1" fill="#050403" />
<rect x="61" y="12" width="1" height="1" fill="#050403" />
<rect x="1" y="13" width="1" height="1" fill="#050403" />
<rect x="2" y="13" width="1" height="1" fill="#050403" />
<rect x="3" y="13" width="1" height="1" fill="#050403" />
<rect x="4" y="13" width="1" height="1" fill="#050403" />
<rect x="59" y="13" width="1" height="1" fill="#050403" />
<rect x="60" y="13" width="1" height="1" fill="#050403" />
<rect x="61" y="13" width="1" height="1" fill="#050403" />
<rect x="62" y="13" width="1" height="1" fill="#050403" />
<rect x="1" y="14" width="1" height="1" fill="#050403" />
<rect x="4" y="14" width="1" height="1" fill="#050403" />
<rect x="5" y="14" width="1" height="1" fill="#050403" />
<rect x="58" y="14" width="1" height="1" fill="#050403" />
<rect x="59" y="14" width="1" height="1" fill="#050403" />
<rect x="62" y="14" width="1" height="1" fill="#050403" />
<rect x="1" y="15" width="1" height="1" fill="#050403" />
<rect x="5" y="15" width="1" height="1" fill="#050403" />
<rect x="6" y="15" width="1" height="1" fill="#050403" />
<rect x="57" y="15" width="1" height="1" fill="#050403" />
<rect x="58" y="15" width="1" height="1" fill="#050403" />
<rect x="62" y="15" width="1" height="1" fill="#050403" />
<rect x="1" y="16" width="1" height="1" fill="#050403" />
<rect x="6" y="16" width="1" height="1" fill="#050403" />
<rect x="7" y="16" width="1" height="1" fill="#050403" />
<rect x="56" y="16" width="1" height="1" fill="#050403" />
<rect x="57" y="16" width="1" height="1" fill="#050403" />
<rect x="62" y="16" width="1" height="1" fill="#050403" />
<rect x="1" y="17" width="1" height="1" fill="#050403" />
<rect x="7" y="17" width="1" height="1" fill="#050403" />
<rect x="56" y="17" width="1" height="1" fill="#050403" />
<rect x="62" y="17" width="1" height="1" fill="#050403" />
<rect x="1" y="18" width="1" height="1" fill="#050403" />
<rect x="7" y="18" width="1" height="1" fill="#050403" />
<rect x="8" y="18" width="1" height="1" fill="#050403" />
<rect x="55" y="18" width="1" height="1" fill="#050403" />
<rect x="56" y="18" width="1" height="1" fill="#050403" />
<rect x="62" y="18" width="1" height="1" fill="#050403" />
<rect x="8" y="19" width="1" height="1" fill="#050403" />
<rect x="55" y="19" width="1" height="1" fill="#050403" />
<rect x="8" y="20" width="1" height="1" fill="#050403" />
<rect x="9" y="20" width="1" height="1" fill="#050403" />
<rect x="54" y="20" width="1" height="1" fill="#050403" />
<rect x="55" y="20" width="1" height="1" fill="#050403" />
<rect x="9" y="21" width="1" height="1" fill="#050403" />
<rect x="54" y="21" width="1" height="1" fill="#050403" />
<rect x="9" y="22" width="1" height="1" fill="#050403" />
<rect x="10" y="22" width="1" height="1" fill="#050403" />
<rect x="53" y="22" width="1" height="1" fill="#050403" />
<rect x="54" y="22" width="1" height="1" fill="#050403" />
<rect x="10" y="23" width="1" height="1" fill="#050403" />
<rect x="53" y="23" width="1" height="1" fill="#050403" />
<rect x="10" y="24" width="1" height="1" fill="#050403" />
<rect x="11" y="24" width="1" height="1" fill="#050403" />
<rect x="52" y="24" width="1" height="1" fill="#050403" />
<rect x="53" y="24" width="1" height="1" fill="#050403" />
<rect x="11" y="25" width="1" height="1" fill="#050403" />
<rect x="52" y="25" width="1" height="1" fill="#050403" />
<rect x="11" y="26" width="1" height="1" fill="#050403" />
<rect x="12" y="26" width="1" height="1" fill="#050403" />
<rect x="51" y="26" width="1" height="1" fill="#050403" />
<rect x="52" y="26" width="1" height="1" fill="#050403" />
<rect x="12" y="27" width="1" height="1" fill="#050403" />
<rect x="51" y="27" width="1" height="1" fill="#050403" />
<rect x="12" y="28" width="1" height="1" fill="#050403" />
<rect x="13" y="28" width="1" height="1" fill="#050403" />
<rect x="50" y="28" width="1" height="1" fill="#050403" />
<rect x="51" y="28" width="1" height="1" fill="#050403" />
<rect x="13" y="29" width="1" height="1" fill="#050403" />
<rect x="50" y="29" width="1" height="1" fill="#050403" />
<rect x="13" y="30" width="1" height="1" fill="#050403" />
<rect x="19" y="30" width="1" height="1" fill="#050403" />
<rect x="20" y="30" width="1" height="1" fill="#050403" />
<rect x="21" y="30" width="1" height="1" fill="#050403" />
<rect x="22" y="30" width="1" height="1" fill="#050403" />
<rect x="29" y="30" width="1" height="1" fill="#050403" />
<rect x="30" y="30" width="1" height="1" fill="#050403" />
<rect x="31" y="30" width="1" height="1" fill="#050403" />
<rect x="32" y="30" width="1" height="1" fill="#050403" />
<rect x="33" y="30" width="1" height="1" fill="#050403" />
<rect x="34" y="30" width="1" height="1" fill="#050403" />
<rect x="41" y="30" width="1" height="1" fill="#050403" />
<rect x="42" y="30" width="1" height="1" fill="#050403" />
<rect x="43" y="30" width="1" height="1" fill="#050403" />
<rect x="44" y="30" width="1" height="1" fill="#050403" />
<rect x="50" y="30" width="1" height="1" fill="#050403" />
<rect x="13" y="31" width="1" height="1" fill="#050403" />
<rect x="14" y="31" width="1" height="1" fill="#050403" />
<rect x="17" y="31" width="1" height="1" fill="#050403" />
<rect x="18" y="31" width="1" height="1" fill="#050403" />
<rect x="19" y="31" width="1" height="1" fill="#FFFFFF" />
<rect x="20" y="31" width="1" height="1" fill="#FFFFFF" />
<rect x="21" y="31" width="1" height="1" fill="#FFFFFF" />
<rect x="22" y="31" width="1" height="1" fill="#FFFFFF" />
<rect x="23" y="31" width="1" height="1" fill="#050403" />
<rect x="24" y="31" width="1" height="1" fill="#050403" />
<rect x="27" y="31" width="1" height="1" fill="#050403" />
<rect x="28" y="31" width="1" height="1" fill="#050403" />
<rect x="29" y="31" width="1" height="1" fill="#050403" />
<rect x="34" y="31" width="1" height="1" fill="#050403" />
<rect x="35" y="31" width="1" height="1" fill="#050403" />
<rect x="36" y="31" width="1" height="1" fill="#050403" />
<rect x="39" y="31" width="1" height="1" fill="#050403" />
<rect x="40" y="31" width="1" height="1" fill="#050403" />
<rect x="41" y="31" width="1" height="1" fill="#FFFFFF" />
<rect x="42" y="31" width="1" height="1" fill="#FFFFFF" />
<rect x="43" y="31" width="1" height="1" fill="#FFFFFF" />
<rect x="44" y="31" width="1" height="1" fill="#FFFFFF" />
<rect x="45" y="31" width="1" height="1" fill="#050403" />
<rect x="46" y="31" width="1" height="1" fill="#050403" />
<rect x="49" y="31" width="1" height="1" fill="#050403" />
<rect x="50" y="31" width="1" height="1" fill="#050403" />
<rect x="14" y="32" width="1" height="1" fill="#050403" />
<rect x="15" y="32" width="1" height="1" fill="#050403" />
<rect x="16" y="32" width="1" height="1" fill="#050403" />
<rect x="17" y="32" width="1" height="1" fill="#FFFFFF" />
<rect x="18" y="32" width="1" height="1" fill="#FFFFFF" />
<rect x="19" y="32" width="1" height="1" fill="#FFF089" />
<rect x="20" y="32" width="1" height="1" fill="#FFF089" />
<rect x="21" y="32" width="1" height="1" fill="#FFF089" />
<rect x="22" y="32" width="1" height="1" fill="#FFF089" />
<rect x="23" y="32" width="1" height="1" fill="#FFF089" />
<rect x="24" y="32" width="1" height="1" fill="#FFFFFF" />
<rect x="25" y="32" width="1" height="1" fill="#050403" />
<rect x="26" y="32" width="1" height="1" fill="#050403" />
<rect x="27" y="32" width="1" height="1" fill="#050403" />
<rect x="36" y="32" width="1" height="1" fill="#050403" />
<rect x="37" y="32" width="1" height="1" fill="#050403" />
<rect x="38" y="32" width="1" height="1" fill="#050403" />
<rect x="39" y="32" width="1" height="1" fill="#FFFFFF" />
<rect x="40" y="32" width="1" height="1" fill="#FFF089" />
<rect x="41" y="32" width="1" height="1" fill="#FFF089" />
<rect x="42" y="32" width="1" height="1" fill="#FFF089" />
<rect x="43" y="32" width="1" height="1" fill="#FFF089" />
<rect x="44" y="32" width="1" height="1" fill="#FFF089" />
<rect x="45" y="32" width="1" height="1" fill="#FFFFFF" />
<rect x="46" y="32" width="1" height="1" fill="#FFFFFF" />
<rect x="47" y="32" width="1" height="1" fill="#050403" />
<rect x="48" y="32" width="1" height="1" fill="#050403" />
<rect x="49" y="32" width="1" height="1" fill="#050403" />
<rect x="14" y="33" width="1" height="1" fill="#050403" />
<rect x="15" y="33" width="1" height="1" fill="#FFFFFF" />
<rect x="16" y="33" width="1" height="1" fill="#FFFFFF" />
<rect x="17" y="33" width="1" height="1" fill="#FFFFFF" />
<rect x="18" y="33" width="1" height="1" fill="#FFF089" />
<rect x="19" y="33" width="1" height="1" fill="#FFF089" />
<rect x="20" y="33" width="1" height="1" fill="#FFFFFF" />
<rect x="21" y="33" width="1" height="1" fill="#FFFFFF" />
<rect x="22" y="33" width="1" height="1" fill="#FFFFFF" />
<rect x="23" y="33" width="1" height="1" fill="#FFF089" />
<rect x="24" y="33" width="1" height="1" fill="#FFF089" />
<rect x="25" y="33" width="1" height="1" fill="#FFF089" />
<rect x="26" y="33" width="1" height="1" fill="#FFF089" />
<rect x="27" y="33" width="1" height="1" fill="#050403" />
<rect x="36" y="33" width="1" height="1" fill="#050403" />
<rect x="37" y="33" width="1" height="1" fill="#FFF089" />
<rect x="38" y="33" width="1" height="1" fill="#FFF089" />
<rect x="39" y="33" width="1" height="1" fill="#FFF089" />
<rect x="40" y="33" width="1" height="1" fill="#FFF089" />
<rect x="41" y="33" width="1" height="1" fill="#FFFFFF" />
<rect x="42" y="33" width="1" height="1" fill="#FFFFFF" />
<rect x="43" y="33" width="1" height="1" fill="#FFFFFF" />
<rect x="44" y="33" width="1" height="1" fill="#FFF089" />
<rect x="45" y="33" width="1" height="1" fill="#FFF089" />
<rect x="46" y="33" width="1" height="1" fill="#FFFFFF" />
<rect x="47" y="33" width="1" height="1" fill="#FFFFFF" />
<rect x="48" y="33" width="1" height="1" fill="#FFFFFF" />
<rect x="49" y="33" width="1" height="1" fill="#050403" />
<rect x="14" y="34" width="1" height="1" fill="#050403" />
<rect x="15" y="34" width="1" height="1" fill="#FFFFFF" />
<rect x="16" y="34" width="1" height="1" fill="#FFF089" />
<rect x="17" y="34" width="1" height="1" fill="#FFF089" />
<rect x="18" y="34" width="1" height="1" fill="#FFF089" />
<rect x="19" y="34" width="1" height="1" fill="#FFFFFF" />
<rect x="20" y="34" width="1" height="1" fill="#FFFFFF" />
<rect x="21" y="34" width="1" height="1" fill="#FFFFFF" />
<rect x="22" y="34" width="1" height="1" fill="#FFFFFF" />
<rect x="23" y="34" width="1" height="1" fill="#FFFFFF" />
<rect x="24" y="34" width="1" height="1" fill="#FFFFFF" />
<rect x="25" y="34" width="1" height="1" fill="#FFFFFF" />
<rect x="26" y="34" width="1" height="1" fill="#FFFFFF" />
<rect x="27" y="34" width="1" height="1" fill="#050403" />
<rect x="36" y="34" width="1" height="1" fill="#050403" />
<rect x="37" y="34" width="1" height="1" fill="#FFFFFF" />
<rect x="38" y="34" width="1" height="1" fill="#FFFFFF" />
<rect x="39" y="34" width="1" height="1" fill="#FFFFFF" />
<rect x="40" y="34" width="1" height="1" fill="#FFFFFF" />
<rect x="41" y="34" width="1" height="1" fill="#FFFFFF" />
<rect x="42" y="34" width="1" height="1" fill="#FFFFFF" />
<rect x="43" y="34" width="1" height="1" fill="#FFFFFF" />
<rect x="44" y="34" width="1" height="1" fill="#FFFFFF" />
<rect x="45" y="34" width="1" height="1" fill="#FFF089" />
<rect x="46" y="34" width="1" height="1" fill="#FFF089" />
<rect x="47" y="34" width="1" height="1" fill="#FFF089" />
<rect x="48" y="34" width="1" height="1" fill="#FFFFFF" />
<rect x="49" y="34" width="1" height="1" fill="#050403" />
<rect x="13" y="35" width="1" height="1" fill="#050403" />
<rect x="14" y="35" width="1" height="1" fill="#FFFFFF" />
<rect x="15" y="35" width="1" height="1" fill="#FFFFFF" />
<rect x="16" y="35" width="1" height="1" fill="#FFF089" />
<rect x="17" y="35" width="1" height="1" fill="#FFFFFF" />
<rect x="18" y="35" width="1" height="1" fill="#FFFFFF" />
<rect x="19" y="35" width="1" height="1" fill="#FFFFFF" />
<rect x="20" y="35" width="1" height="1" fill="#FFF089" />
<rect x="21" y="35" width="1" height="1" fill="#FFF089" />
<rect x="22" y="35" width="1" height="1" fill="#FFF089" />
<rect x="23" y="35" width="1" height="1" fill="#FFF089" />
<rect x="24" y="35" width="1" height="1" fill="#FFFFFF" />
<rect x="25" y="35" width="1" height="1" fill="#FFFFFF" />
<rect x="26" y="35" width="1" height="1" fill="#FFFFFF" />
<rect x="27" y="35" width="1" height="1" fill="#FFFFFF" />
<rect x="28" y="35" width="1" height="1" fill="#050403" />
<rect x="35" y="35" width="1" height="1" fill="#050403" />
<rect x="36" y="35" width="1" height="1" fill="#FFFFFF" />
<rect x="37" y="35" width="1" height="1" fill="#FFFFFF" />
<rect x="38" y="35" width="1" height="1" fill="#FFFFFF" />
<rect x="39" y="35" width="1" height="1" fill="#FFFFFF" />
<rect x="40" y="35" width="1" height="1" fill="#FFF089" />
<rect x="41" y="35" width="1" height="1" fill="#FFF089" />
<rect x="42" y="35" width="1" height="1" fill="#FFF089" />
<rect x="43" y="35" width="1" height="1" fill="#FFF089" />
<rect x="44" y="35" width="1" height="1" fill="#FFFFFF" />
<rect x="45" y="35" width="1" height="1" fill="#FFFFFF" />
<rect x="46" y="35" width="1" height="1" fill="#FFFFFF" />
<rect x="47" y="35" width="1" height="1" fill="#FFF089" />
<rect x="48" y="35" width="1" height="1" fill="#FFFFFF" />
<rect x="49" y="35" width="1" height="1" fill="#FFFFFF" />
<rect x="50" y="35" width="1" height="1" fill="#050403" />
<rect x="13" y="36" width="1" height="1" fill="#050403" />
<rect x="14" y="36" width="1" height="1" fill="#FFFFFF" />
<rect x="15" y="36" width="1" height="1" fill="#FFFFFF" />
<rect x="16" y="36" width="1" height="1" fill="#FFF089" />
<rect x="17" y="36" width="1" height="1" fill="#FFFFFF" />
<rect x="18" y="36" width="1" height="1" fill="#FFFFFF" />
<rect x="19" y="36" width="1" height="1" fill="#FFF089" />
<rect x="20" y="36" width="1" height="1" fill="#FFF089" />
<rect x="21" y="36" width="1" height="1" fill="#FFFFFF" />
<rect x="22" y="36" width="1" height="1" fill="#FFFFFF" />
<rect x="23" y="36" width="1" height="1" fill="#FFF089" />
<rect x="24" y="36" width="1" height="1" fill="#FFF089" />
<rect x="25" y="36" width="1" height="1" fill="#FFFFFF" />
<rect x="26" y="36" width="1" height="1" fill="#FFFFFF" />
<rect x="27" y="36" width="1" height="1" fill="#FFFFFF" />
<rect x="28" y="36" width="1" height="1" fill="#050403" />
<rect x="35" y="36" width="1" height="1" fill="#050403" />
<rect x="36" y="36" width="1" height="1" fill="#FFFFFF" />
<rect x="37" y="36" width="1" height="1" fill="#FFFFFF" />
<rect x="38" y="36" width="1" height="1" fill="#FFFFFF" />
<rect x="39" y="36" width="1" height="1" fill="#FFF089" />
<rect x="40" y="36" width="1" height="1" fill="#FFF089" />
<rect x="41" y="36" width="1" height="1" fill="#FFFFFF" />
<rect x="42" y="36" width="1" height="1" fill="#FFFFFF" />
<rect x="43" y="36" width="1" height="1" fill="#FFF089" />
<rect x="44" y="36" width="1" height="1" fill="#FFF089" />
<rect x="45" y="36" width="1" height="1" fill="#FFFFFF" />
<rect x="46" y="36" width="1" height="1" fill="#FFFFFF" />
<rect x="47" y="36" width="1" height="1" fill="#FFF089" />
<rect x="48" y="36" width="1" height="1" fill="#FFFFFF" />
<rect x="49" y="36" width="1" height="1" fill="#FFFFFF" />
<rect x="50" y="36" width="1" height="1" fill="#050403" />
<rect x="13" y="37" width="1" height="1" fill="#050403" />
<rect x="14" y="37" width="1" height="1" fill="#FFFFFF" />
<rect x="15" y="37" width="1" height="1" fill="#FFFFFF" />
<rect x="16" y="37" width="1" height="1" fill="#FFF089" />
<rect x="17" y="37" width="1" height="1" fill="#FFFFFF" />
<rect x="18" y="37" width="1" height="1" fill="#FFFFFF" />
<rect x="19" y="37" width="1" height="1" fill="#FFF089" />
<rect x="20" y="37" width="1" height="1" fill="#FFFFFF" />
<rect x="21" y="37" width="1" height="1" fill="#FFF089" />
<rect x="22" y="37" width="1" height="1" fill="#FFFFFF" />
<rect x="23" y="37" width="1" height="1" fill="#FFFFFF" />
<rect x="24" y="37" width="1" height="1" fill="#FFF089" />
<rect x="25" y="37" width="1" height="1" fill="#FFFFFF" />
<rect x="26" y="37" width="1" height="1" fill="#FFFFFF" />
<rect x="27" y="37" width="1" height="1" fill="#FFFFFF" />
<rect x="28" y="37" width="1" height="1" fill="#050403" />
<rect x="35" y="37" width="1" height="1" fill="#050403" />
<rect x="36" y="37" width="1" height="1" fill="#FFFFFF" />
<rect x="37" y="37" width="1" height="1" fill="#FFFFFF" />
<rect x="38" y="37" width="1" height="1" fill="#FFFFFF" />
<rect x="39" y="37" width="1" height="1" fill="#FFF089" />
<rect x="40" y="37" width="1" height="1" fill="#FFFFFF" />
<rect x="41" y="37" width="1" height="1" fill="#FFFFFF" />
<rect x="42" y="37" width="1" height="1" fill="#FFF089" />
<rect x="43" y="37" width="1" height="1" fill="#FFFFFF" />
<rect x="44" y="37" width="1" height="1" fill="#FFF089" />
<rect x="45" y="37" width="1" height="1" fill="#FFFFFF" />
<rect x="46" y="37" width="1" height="1" fill="#FFFFFF" />
<rect x="47" y="37" width="1" height="1" fill="#FFF089" />
<rect x="48" y="37" width="1" height="1" fill="#FFFFFF" />
<rect x="49" y="37" width="1" height="1" fill="#FFFFFF" />
<rect x="50" y="37" width="1" height="1" fill="#050403" />
<rect x="13" y="38" width="1" height="1" fill="#050403" />
<rect x="14" y="38" width="1" height="1" fill="#FFFFFF" />
<rect x="15" y="38" width="1" height="1" fill="#FFFFFF" />
<rect x="16" y="38" width="1" height="1" fill="#FFF089" />
<rect x="17" y="38" width="1" height="1" fill="#FFFFFF" />
<rect x="18" y="38" width="1" height="1" fill="#FFFFFF" />
<rect x="19" y="38" width="1" height="1" fill="#FFF089" />
<rect x="20" y="38" width="1" height="1" fill="#FFFFFF" />
<rect x="21" y="38" width="1" height="1" fill="#FFF089" />
<rect x="22" y="38" width="1" height="1" fill="#FFFFFF" />
<rect x="23" y="38" width="1" height="1" fill="#FFFFFF" />
<rect x="24" y="38" width="1" height="1" fill="#FFF089" />
<rect x="25" y="38" width="1" height="1" fill="#FFFFFF" />
<rect x="26" y="38" width="1" height="1" fill="#FFFFFF" />
<rect x="27" y="38" width="1" height="1" fill="#FFFFFF" />
<rect x="28" y="38" width="1" height="1" fill="#050403" />
<rect x="35" y="38" width="1" height="1" fill="#050403" />
<rect x="36" y="38" width="1" height="1" fill="#FFFFFF" />
<rect x="37" y="38" width="1" height="1" fill="#FFFFFF" />
<rect x="38" y="38" width="1" height="1" fill="#FFFFFF" />
<rect x="39" y="38" width="1" height="1" fill="#FFF089" />
<rect x="40" y="38" width="1" height="1" fill="#FFFFFF" />
<rect x="41" y="38" width="1" height="1" fill="#FFFFFF" />
<rect x="42" y="38" width="1" height="1" fill="#FFF089" />
<rect x="43" y="38" width="1" height="1" fill="#FFFFFF" />
<rect x="44" y="38" width="1" height="1" fill="#FFF089" />
<rect x="45" y="38" width="1" height="1" fill="#FFFFFF" />
<rect x="46" y="38" width="1" height="1" fill="#FFFFFF" />
<rect x="47" y="38" width="1" height="1" fill="#FFF089" />
<rect x="48" y="38" width="1" height="1" fill="#FFFFFF" />
<rect x="49" y="38" width="1" height="1" fill="#FFFFFF" />
<rect x="50" y="38" width="1" height="1" fill="#050403" />
<rect x="13" y="39" width="1" height="1" fill="#050403" />
<rect x="14" y="39" width="1" height="1" fill="#FFFFFF" />
<rect x="15" y="39" width="1" height="1" fill="#FFFFFF" />
<rect x="16" y="39" width="1" height="1" fill="#FFF089" />
<rect x="17" y="39" width="1" height="1" fill="#FFF089" />
<rect x="18" y="39" width="1" height="1" fill="#FFFFFF" />
<rect x="19" y="39" width="1" height="1" fill="#FFF089" />
<rect x="20" y="39" width="1" height="1" fill="#FFF089" />
<rect x="21" y="39" width="1" height="1" fill="#FFF089" />
<rect x="22" y="39" width="1" height="1" fill="#FFFFFF" />
<rect x="23" y="39" width="1" height="1" fill="#FFF089" />
<rect x="24" y="39" width="1" height="1" fill="#FFF089" />
<rect x="25" y="39" width="1" height="1" fill="#FFFFFF" />
<rect x="26" y="39" width="1" height="1" fill="#FFFFFF" />
<rect x="27" y="39" width="1" height="1" fill="#FFFFFF" />
<rect x="28" y="39" width="1" height="1" fill="#050403" />
<rect x="35" y="39" width="1" height="1" fill="#050403" />
<rect x="36" y="39" width="1" height="1" fill="#FFFFFF" />
<rect x="37" y="39" width="1" height="1" fill="#FFFFFF" />
<rect x="38" y="39" width="1" height="1" fill="#FFFFFF" />
<rect x="39" y="39" width="1" height="1" fill="#FFF089" />
<rect x="40" y="39" width="1" height="1" fill="#FFF089" />
<rect x="41" y="39" width="1" height="1" fill="#FFFFFF" />
<rect x="42" y="39" width="1" height="1" fill="#FFF089" />
<rect x="43" y="39" width="1" height="1" fill="#FFF089" />
<rect x="44" y="39" width="1" height="1" fill="#FFF089" />
<rect x="45" y="39" width="1" height="1" fill="#FFFFFF" />
<rect x="46" y="39" width="1" height="1" fill="#FFF089" />
<rect x="47" y="39" width="1" height="1" fill="#FFF089" />
<rect x="48" y="39" width="1" height="1" fill="#FFFFFF" />
<rect x="49" y="39" width="1" height="1" fill="#FFFFFF" />
<rect x="50" y="39" width="1" height="1" fill="#050403" />
<rect x="14" y="40" width="1" height="1" fill="#050403" />
<rect x="15" y="40" width="1" height="1" fill="#FFFFFF" />
<rect x="16" y="40" width="1" height="1" fill="#FFFFFF" />
<rect x="17" y="40" width="1" height="1" fill="#FFF089" />
<rect x="18" y="40" width="1" height="1" fill="#FFF089" />
<rect x="19" y="40" width="1" height="1" fill="#FFFFFF" />
<rect x="20" y="40" width="1" height="1" fill="#FFFFFF" />
<rect x="21" y="40" width="1" height="1" fill="#FFFFFF" />
<rect x="22" y="40" width="1" height="1" fill="#FFF089" />
<rect x="23" y="40" width="1" height="1" fill="#FFF089" />
<rect x="24" y="40" width="1" height="1" fill="#FFFFFF" />
<rect x="25" y="40" width="1" height="1" fill="#FFFFFF" />
<rect x="26" y="40" width="1" height="1" fill="#FFFFFF" />
<rect x="27" y="40" width="1" height="1" fill="#050403" />
<rect x="36" y="40" width="1" height="1" fill="#050403" />
<rect x="37" y="40" width="1" height="1" fill="#FFFFFF" />
<rect x="38" y="40" width="1" height="1" fill="#FFFFFF" />
<rect x="39" y="40" width="1" height="1" fill="#FFFFFF" />
<rect x="40" y="40" width="1" height="1" fill="#FFF089" />
<rect x="41" y="40" width="1" height="1" fill="#FFF089" />
<rect x="42" y="40" width="1" height="1" fill="#FFFFFF" />
<rect x="43" y="40" width="1" height="1" fill="#FFFFFF" />
<rect x="44" y="40" width="1" height="1" fill="#FFFFFF" />
<rect x="45" y="40" width="1" height="1" fill="#FFF089" />
<rect x="46" y="40" width="1" height="1" fill="#FFF089" />
<rect x="47" y="40" width="1" height="1" fill="#FFFFFF" />
<rect x="48" y="40" width="1" height="1" fill="#FFFFFF" />
<rect x="49" y="40" width="1" height="1" fill="#050403" />
<rect x="14" y="41" width="1" height="1" fill="#050403" />
<rect x="15" y="41" width="1" height="1" fill="#FFFFFF" />
<rect x="16" y="41" width="1" height="1" fill="#FFFFFF" />
<rect x="17" y="41" width="1" height="1" fill="#FFFFFF" />
<rect x="18" y="41" width="1" height="1" fill="#FFF089" />
<rect x="19" y="41" width="1" height="1" fill="#FFF089" />
<rect x="20" y="41" width="1" height="1" fill="#FFF089" />
<rect x="21" y="41" width="1" height="1" fill="#FFF089" />
<rect x="22" y="41" width="1" height="1" fill="#FFF089" />
<rect x="23" y="41" width="1" height="1" fill="#FFFFFF" />
<rect x="24" y="41" width="1" height="1" fill="#FFFFFF" />
<rect x="25" y="41" width="1" height="1" fill="#FFFFFF" />
<rect x="26" y="41" width="1" height="1" fill="#FFFFFF" />
<rect x="27" y="41" width="1" height="1" fill="#050403" />
<rect x="36" y="41" width="1" height="1" fill="#050403" />
<rect x="37" y="41" width="1" height="1" fill="#FFFFFF" />
<rect x="38" y="41" width="1" height="1" fill="#FFFFFF" />
<rect x="39" y="41" width="1" height="1" fill="#FFFFFF" />
<rect x="40" y="41" width="1" height="1" fill="#FFFFFF" />
<rect x="41" y="41" width="1" height="1" fill="#FFF089" />
<rect x="42" y="41" width="1" height="1" fill="#FFF089" />
<rect x="43" y="41" width="1" height="1" fill="#FFF089" />
<rect x="44" y="41" width="1" height="1" fill="#FFF089" />
<rect x="45" y="41" width="1" height="1" fill="#FFF089" />
<rect x="46" y="41" width="1" height="1" fill="#FFFFFF" />
<rect x="47" y="41" width="1" height="1" fill="#FFFFFF" />
<rect x="48" y="41" width="1" height="1" fill="#FFFFFF" />
<rect x="49" y="41" width="1" height="1" fill="#050403" />
<rect x="15" y="42" width="1" height="1" fill="#050403" />
<rect x="16" y="42" width="1" height="1" fill="#050403" />
<rect x="17" y="42" width="1" height="1" fill="#FFFFFF" />
<rect x="18" y="42" width="1" height="1" fill="#FFFFFF" />
<rect x="19" y="42" width="1" height="1" fill="#FFFFFF" />
<rect x="20" y="42" width="1" height="1" fill="#FFFFFF" />
<rect x="21" y="42" width="1" height="1" fill="#FFFFFF" />
<rect x="22" y="42" width="1" height="1" fill="#FFFFFF" />
<rect x="23" y="42" width="1" height="1" fill="#FFFFFF" />
<rect x="24" y="42" width="1" height="1" fill="#FFFFFF" />
<rect x="25" y="42" width="1" height="1" fill="#050403" />
<rect x="26" y="42" width="1" height="1" fill="#050403" />
<rect x="37" y="42" width="1" height="1" fill="#050403" />
<rect x="38" y="42" width="1" height="1" fill="#050403" />
<rect x="39" y="42" width="1" height="1" fill="#FFFFFF" />
<rect x="40" y="42" width="1" height="1" fill="#FFFFFF" />
<rect x="41" y="42" width="1" height="1" fill="#FFFFFF" />
<rect x="42" y="42" width="1" height="1" fill="#FFFFFF" />
<rect x="43" y="42" width="1" height="1" fill="#FFFFFF" />
<rect x="44" y="42" width="1" height="1" fill="#FFFFFF" />
<rect x="45" y="42" width="1" height="1" fill="#FFFFFF" />
<rect x="46" y="42" width="1" height="1" fill="#FFFFFF" />
<rect x="47" y="42" width="1" height="1" fill="#050403" />
<rect x="48" y="42" width="1" height="1" fill="#050403" />
<rect x="17" y="43" width="1" height="1" fill="#050403" />
<rect x="18" y="43" width="1" height="1" fill="#050403" />
<rect x="19" y="43" width="1" height="1" fill="#FFFFFF" />
<rect x="20" y="43" width="1" height="1" fill="#FFFFFF" />
<rect x="21" y="43" width="1" height="1" fill="#FFFFFF" />
<rect x="22" y="43" width="1" height="1" fill="#FFFFFF" />
<rect x="23" y="43" width="1" height="1" fill="#050403" />
<rect x="24" y="43" width="1" height="1" fill="#050403" />
<rect x="39" y="43" width="1" height="1" fill="#050403" />
<rect x="40" y="43" width="1" height="1" fill="#050403" />
<rect x="41" y="43" width="1" height="1" fill="#FFFFFF" />
<rect x="42" y="43" width="1" height="1" fill="#FFFFFF" />
<rect x="43" y="43" width="1" height="1" fill="#FFFFFF" />
<rect x="44" y="43" width="1" height="1" fill="#FFFFFF" />
<rect x="45" y="43" width="1" height="1" fill="#050403" />
<rect x="46" y="43" width="1" height="1" fill="#050403" />
<rect x="19" y="44" width="1" height="1" fill="#050403" />
<rect x="20" y="44" width="1" height="1" fill="#050403" />
<rect x="21" y="44" width="1" height="1" fill="#050403" />
<rect x="22" y="44" width="1" height="1" fill="#050403" />
<rect x="41" y="44" width="1" height="1" fill="#050403" />
<rect x="42" y="44" width="1" height="1" fill="#050403" />
<rect x="43" y="44" width="1" height="1" fill="#050403" />
<rect x="44" y="44" width="1" height="1" fill="#050403" />
</svg>